# Blender 4.4.3
# www.blender.org
mtllib torch.mtl
g Cube.001_Mesh
v -0.401169 0.004537 0.398318 0.0000 0.0000 0.0000
v -0.402937 0.014344 0.410276 1.0000 1.0000 1.0000
v -0.413126 0.014344 0.400086 1.0000 1.0000 1.0000
v -0.281829 0.275514 0.288829 1.0000 1.0000 1.0000
v -0.291869 0.275534 0.278765 1.0000 1.0000 1.0000
v -0.302791 0.265576 0.285798 1.0000 1.0000 1.0000
v -0.288649 0.265576 0.299940 1.0000 1.0000 1.0000
v -0.413126 0.014344 -0.385492 1.0000 1.0000 1.0000
v -0.402937 0.014344 -0.395681 1.0000 1.0000 1.0000
v -0.401169 0.004537 -0.383724 0.0000 0.0000 0.0000
v -0.291787 0.275526 -0.264081 1.0000 1.0000 1.0000
v -0.281739 0.275505 -0.274154 1.0000 1.0000 1.0000
v -0.288649 0.265576 -0.285346 1.0000 1.0000 1.0000
v -0.302791 0.265576 -0.271204 1.0000 1.0000 1.0000
v 0.392831 0.014344 0.400086 1.0000 1.0000 1.0000
v 0.382641 0.014344 0.410276 1.0000 1.0000 1.0000
v 0.380873 0.004537 0.398318 0.0000 0.0000 0.0000
v 0.271531 0.275530 0.279488 1.0000 1.0000 1.0000
v 0.261481 0.275566 0.289496 1.0000 1.0000 1.0000
v 0.268353 0.265576 0.299940 1.0000 1.0000 1.0000
v 0.282495 0.265576 0.285798 1.0000 1.0000 1.0000
v 0.382641 0.014344 -0.395682 1.0000 1.0000 1.0000
v 0.392831 0.014344 -0.385492 1.0000 1.0000 1.0000
v 0.380873 0.004537 -0.383724 0.0000 0.0000 0.0000
v 0.261927 0.275571 -0.275016 1.0000 1.0000 1.0000
v 0.271943 0.275561 -0.265011 1.0000 1.0000 1.0000
v 0.282495 0.265576 -0.271204 1.0000 1.0000 1.0000
v 0.268353 0.265576 -0.285346 1.0000 1.0000 1.0000
v -0.413234 0.255792 0.400173 1.0000 1.0000 1.0000
v -0.403023 0.255792 0.410384 1.0000 1.0000 1.0000
v -0.387027 0.265576 0.398318 1.0000 1.0000 1.0000
v -0.401169 0.265576 0.384176 1.0000 1.0000 1.0000
v -0.413234 0.255792 -0.385578 1.0000 1.0000 1.0000
v -0.401169 0.265576 -0.369582 1.0000 1.0000 1.0000
v -0.387027 0.265576 -0.383724 1.0000 1.0000 1.0000
v -0.403023 0.255792 -0.395789 1.0000 1.0000 1.0000
v 0.382728 0.255792 -0.395789 1.0000 1.0000 1.0000
v 0.366731 0.265576 -0.383724 1.0000 1.0000 1.0000
v 0.380873 0.265576 -0.369582 1.0000 1.0000 1.0000
v 0.392939 0.255792 -0.385578 1.0000 1.0000 1.0000
v 0.392939 0.255792 0.400173 1.0000 1.0000 1.0000
v 0.380873 0.265576 0.384176 1.0000 1.0000 1.0000
v 0.366731 0.265576 0.398318 1.0000 1.0000 1.0000
v 0.382728 0.255792 0.410384 1.0000 1.0000 1.0000
v -0.253677 0.641145 0.260396 1.0000 1.0000 1.0000
v -0.263719 0.641204 0.250281 1.0000 1.0000 1.0000
v -0.265077 0.621259 0.251746 1.0000 1.0000 1.0000
v -0.255070 0.621253 0.261746 1.0000 1.0000 1.0000
v -0.264664 0.621252 -0.236553 1.0000 1.0000 1.0000
v -0.263427 0.641170 -0.236411 1.0000 1.0000 1.0000
v -0.253339 0.641218 -0.246440 1.0000 1.0000 1.0000
v -0.254664 0.621275 -0.246578 1.0000 1.0000 1.0000
v 0.236517 0.622154 -0.251409 1.0000 1.0000 1.0000
v 0.233987 0.641184 -0.246092 1.0000 1.0000 1.0000
v 0.243993 0.641243 -0.236016 1.0000 1.0000 1.0000
v 0.246950 0.621581 -0.240740 1.0000 1.0000 1.0000
v 0.243490 0.641210 0.251049 1.0000 1.0000 1.0000
v 0.233446 0.641222 0.261078 1.0000 1.0000 1.0000
v 0.234301 0.621482 0.263983 1.0000 1.0000 1.0000
v 0.244299 0.621253 0.253798 1.0000 1.0000 1.0000
v -0.227027 0.987712 0.222228 1.0000 1.0000 1.0000
v -0.226932 1.007685 0.223468 1.0000 1.0000 1.0000
v -0.236539 1.006224 0.213272 1.0000 1.0000 1.0000
v -0.236473 0.986190 0.211810 1.0000 1.0000 1.0000
v -0.216415 0.987411 -0.209957 1.0000 1.0000 1.0000
v -0.205919 0.988338 -0.219710 1.0000 1.0000 1.0000
v -0.207682 0.967952 -0.220644 1.0000 1.0000 1.0000
v -0.218578 0.967587 -0.210873 1.0000 1.0000 1.0000
v 0.204872 1.022146 -0.209644 1.0000 1.0000 1.0000
v 0.201721 1.041903 -0.209452 1.0000 1.0000 1.0000
v 0.211413 1.043256 -0.199197 1.0000 1.0000 1.0000
v 0.214587 1.023533 -0.199386 1.0000 1.0000 1.0000
v 0.202712 1.045485 0.222199 1.0000 1.0000 1.0000
v 0.192521 1.044638 0.232012 1.0000 1.0000 1.0000
v 0.194617 1.024785 0.233125 1.0000 1.0000 1.0000
v 0.204828 1.025648 0.223343 1.0000 1.0000 1.0000
v -0.179679 1.472828 0.188274 1.0000 1.0000 1.0000
v -0.189460 1.475724 0.178155 1.0000 1.0000 1.0000
v -0.192189 1.456050 0.181253 1.0000 1.0000 1.0000
v -0.182752 1.453332 0.191791 1.0000 1.0000 1.0000
v -0.188557 1.457276 -0.184242 1.0000 1.0000 1.0000
v -0.183326 1.475725 -0.181743 1.0000 1.0000 1.0000
v -0.173143 1.472694 -0.191387 1.0000 1.0000 1.0000
v -0.178823 1.453684 -0.194064 1.0000 1.0000 1.0000
v 0.166218 1.348977 -0.180524 1.0000 1.0000 1.0000
v 0.176283 1.344719 -0.170196 1.0000 1.0000 1.0000
v 0.178384 1.324810 -0.174738 1.0000 1.0000 1.0000
v 0.167981 1.328992 -0.186457 1.0000 1.0000 1.0000
v 0.180531 1.332370 0.187243 1.0000 1.0000 1.0000
v 0.174562 1.350474 0.182792 1.0000 1.0000 1.0000
v 0.164413 1.354758 0.192644 1.0000 1.0000 1.0000
v 0.168440 1.335116 0.199857 1.0000 1.0000 1.0000
v -0.181440 1.745074 0.192732 1.0000 1.0000 1.0000
v -0.195582 1.745074 0.178590 1.0000 1.0000 1.0000
v -0.185733 1.735075 0.172931 1.0000 1.0000 1.0000
v -0.175731 1.735076 0.182933 1.0000 1.0000 1.0000
v -0.195582 1.745074 -0.163995 1.0000 1.0000 1.0000
v -0.181440 1.745074 -0.178137 1.0000 1.0000 1.0000
v -0.175492 1.735113 -0.169012 1.0000 1.0000 1.0000
v -0.185492 1.735075 -0.158977 1.0000 1.0000 1.0000
v 0.161145 1.745074 -0.178137 1.0000 1.0000 1.0000
v 0.175287 1.745074 -0.163995 1.0000 1.0000 1.0000
v 0.165563 1.735078 -0.158434 1.0000 1.0000 1.0000
v 0.155559 1.735079 -0.168439 1.0000 1.0000 1.0000
v 0.175287 1.745074 0.178590 1.0000 1.0000 1.0000
v 0.161145 1.745074 0.192732 1.0000 1.0000 1.0000
v 0.155518 1.735078 0.182987 1.0000 1.0000 1.0000
v 0.165521 1.735077 0.172983 1.0000 1.0000 1.0000
v -0.253228 1.755074 0.260378 1.0000 1.0000 1.0000
v -0.263228 1.755074 0.250378 1.0000 1.0000 1.0000
v -0.253228 1.745074 0.236236 1.0000 1.0000 1.0000
v -0.239086 1.745074 0.250378 1.0000 1.0000 1.0000
v -0.263228 1.755074 -0.235784 1.0000 1.0000 1.0000
v -0.253228 1.755074 -0.245784 1.0000 1.0000 1.0000
v -0.239086 1.745074 -0.235784 1.0000 1.0000 1.0000
v -0.253228 1.745074 -0.221641 1.0000 1.0000 1.0000
v 0.232933 1.755074 -0.245784 1.0000 1.0000 1.0000
v 0.242933 1.755074 -0.235784 1.0000 1.0000 1.0000
v 0.232933 1.745074 -0.221641 1.0000 1.0000 1.0000
v 0.218791 1.745074 -0.235784 1.0000 1.0000 1.0000
v 0.242933 1.755074 0.250378 1.0000 1.0000 1.0000
v 0.232933 1.755074 0.260378 1.0000 1.0000 1.0000
v 0.218791 1.745074 0.250378 1.0000 1.0000 1.0000
v 0.232933 1.745074 0.236236 1.0000 1.0000 1.0000
v -0.126422 1.827660 0.136637 1.0000 1.0000 1.0000
v -0.139488 1.827660 0.123572 1.0000 1.0000 1.0000
v -0.147457 1.817660 0.130464 1.0000 1.0000 1.0000
v -0.133315 1.817660 0.144606 1.0000 1.0000 1.0000
v -0.139488 1.827660 -0.108978 1.0000 1.0000 1.0000
v -0.126422 1.827660 -0.122043 1.0000 1.0000 1.0000
v -0.133315 1.817660 -0.130012 1.0000 1.0000 1.0000
v -0.147457 1.817660 -0.115870 1.0000 1.0000 1.0000
v 0.106127 1.827660 -0.122043 1.0000 1.0000 1.0000
v 0.119193 1.827660 -0.108978 1.0000 1.0000 1.0000
v 0.127162 1.817660 -0.115870 1.0000 1.0000 1.0000
v 0.113019 1.817660 -0.130012 1.0000 1.0000 1.0000
v 0.119193 1.827660 0.123572 1.0000 1.0000 1.0000
v 0.106127 1.827660 0.136637 1.0000 1.0000 1.0000
v 0.113019 1.817660 0.144606 1.0000 1.0000 1.0000
v 0.127162 1.817660 0.130464 1.0000 1.0000 1.0000
v 0.183140 1.300997 -0.189067 1.0000 1.0000 1.0000
v 0.186075 1.280684 -0.197304 1.0000 1.0000 1.0000
v 0.175593 1.282452 -0.207192 1.0000 1.0000 1.0000
v 0.172661 1.302629 -0.201530 1.0000 1.0000 1.0000
v 0.181878 1.308649 0.210337 1.0000 1.0000 1.0000
v 0.191788 1.306320 0.200213 1.0000 1.0000 1.0000
v 0.185721 1.324172 0.192697 1.0000 1.0000 1.0000
v 0.172528 1.328465 0.203242 1.0000 1.0000 1.0000
v -0.206366 1.404829 0.199857 1.0000 1.0000 1.0000
v -0.209716 1.384946 0.204419 1.0000 1.0000 1.0000
v -0.199716 1.382450 0.214314 1.0000 1.0000 1.0000
v -0.196586 1.401640 0.210768 1.0000 1.0000 1.0000
v -0.203818 1.403325 -0.203083 1.0000 1.0000 1.0000
v -0.213683 1.406443 -0.192961 1.0000 1.0000 1.0000
v -0.208336 1.424843 -0.190766 1.0000 1.0000 1.0000
v -0.198505 1.422449 -0.200913 1.0000 1.0000 1.0000
v 0.200231 0.992567 0.233814 1.0000 1.0000 1.0000
v 0.202904 0.972756 0.234860 1.0000 1.0000 1.0000
v 0.213292 0.972788 0.225324 1.0000 1.0000 1.0000
v 0.210660 0.992582 0.224261 1.0000 1.0000 1.0000
v -0.234534 0.934455 0.207132 1.0000 1.0000 1.0000
v -0.224595 0.935628 0.217622 1.0000 1.0000 1.0000
v -0.224530 0.955479 0.217617 1.0000 1.0000 1.0000
v -0.234333 0.954393 0.207054 1.0000 1.0000 1.0000
v -0.214090 0.938232 -0.222125 1.0000 1.0000 1.0000
v -0.217739 0.918109 -0.223477 1.0000 1.0000 1.0000
v -0.228027 0.918165 -0.213691 1.0000 1.0000 1.0000
v -0.224634 0.937916 -0.212398 1.0000 1.0000 1.0000
v 0.231324 0.936970 -0.201295 1.0000 1.0000 1.0000
v 0.221771 0.935920 -0.211709 1.0000 1.0000 1.0000
v 0.219088 0.955758 -0.210435 1.0000 1.0000 1.0000
v 0.228806 0.956915 -0.200148 1.0000 1.0000 1.0000
v -0.268158 0.537156 0.250856 1.0000 1.0000 1.0000
v -0.269458 0.517151 0.251757 1.0000 1.0000 1.0000
v -0.259447 0.517445 0.262181 1.0000 1.0000 1.0000
v -0.258211 0.537514 0.261165 1.0000 1.0000 1.0000
v -0.255271 0.538144 -0.243191 1.0000 1.0000 1.0000
v -0.265461 0.536972 -0.232705 1.0000 1.0000 1.0000
v -0.264501 0.556915 -0.232170 1.0000 1.0000 1.0000
v -0.254426 0.558193 -0.242662 1.0000 1.0000 1.0000
v 0.233779 0.572225 0.274256 1.0000 1.0000 1.0000
v 0.234659 0.552483 0.276835 1.0000 1.0000 1.0000
v 0.244835 0.553708 0.267118 1.0000 1.0000 1.0000
v 0.243984 0.573857 0.264133 1.0000 1.0000 1.0000
v 0.254712 0.582861 -0.254874 1.0000 1.0000 1.0000
v 0.244954 0.582531 -0.264417 1.0000 1.0000 1.0000
v 0.241897 0.601483 -0.259984 1.0000 1.0000 1.0000
v 0.251655 0.602280 -0.249513 1.0000 1.0000 1.0000
v -0.235425 1.817229 0.232822 0.0000 0.0000 0.0000
v -0.225517 1.807230 0.232315 1.0000 1.0000 1.0000
v -0.225425 1.817216 0.242835 0.0000 0.0000 0.0000
v -0.225517 1.807230 0.196414 1.0000 1.0000 1.0000
v -0.236013 1.817217 0.196479 0.0000 0.0000 0.0000
v -0.226001 1.817229 0.186479 0.0000 0.0000 0.0000
v -0.189616 1.807230 0.232315 1.0000 1.0000 1.0000
v -0.179153 1.817219 0.232254 0.0000 0.0000 0.0000
v -0.189164 1.817229 0.242254 0.0000 0.0000 0.0000
v -0.189616 1.807230 0.196414 1.0000 1.0000 1.0000
v -0.189702 1.817217 0.185923 0.0000 0.0000 0.0000
v -0.179702 1.817229 0.195935 0.0000 0.0000 0.0000
v -0.225517 1.807230 -0.177330 1.0000 1.0000 1.0000
v -0.225517 1.807230 -0.213230 1.0000 1.0000 1.0000
v -0.189616 1.807230 -0.177330 1.0000 1.0000 1.0000
v -0.189616 1.807230 -0.213230 1.0000 1.0000 1.0000
v 0.183506 1.807230 -0.177330 1.0000 1.0000 1.0000
v 0.183490 1.817225 -0.167635 0.0000 0.0000 0.0000
v 0.183506 1.807230 -0.213230 1.0000 1.0000 1.0000
v 0.183567 1.817196 -0.222411 0.0000 0.0000 0.0000
v 0.219407 1.807230 -0.177330 1.0000 1.0000 1.0000
v 0.229370 1.817230 -0.177831 0.0000 0.0000 0.0000
v 0.219370 1.817218 -0.167818 0.0000 0.0000 0.0000
v 0.219407 1.807230 -0.213230 1.0000 1.0000 1.0000
v 0.219430 1.817220 -0.222786 0.0000 0.0000 0.0000
v 0.229430 1.817230 -0.212776 0.0000 0.0000 0.0000
v 0.183506 1.807230 0.229732 1.0000 1.0000 1.0000
v 0.182673 1.817228 0.239586 0.0000 0.0000 0.0000
v 0.183506 1.807230 0.193832 1.0000 1.0000 1.0000
v 0.219407 1.807230 0.229732 1.0000 1.0000 1.0000
v 0.228389 1.817178 0.230561 0.0000 0.0000 0.0000
v 0.218336 1.817192 0.240600 0.0000 0.0000 0.0000
v 0.219407 1.807230 0.193832 1.0000 1.0000 1.0000
v 0.220235 1.817178 0.184849 0.0000 0.0000 0.0000
v 0.230274 1.817192 0.194902 0.0000 0.0000 0.0000
v -0.239086 1.817660 0.250378 1.0000 1.0000 1.0000
v -0.253228 1.817660 0.236236 1.0000 1.0000 1.0000
v -0.263228 1.807660 0.250378 1.0000 1.0000 1.0000
v -0.253228 1.807660 0.260378 1.0000 1.0000 1.0000
v -0.253228 1.817660 -0.221641 1.0000 1.0000 1.0000
v -0.239086 1.817660 -0.235784 1.0000 1.0000 1.0000
v -0.253228 1.807660 -0.245784 1.0000 1.0000 1.0000
v -0.263228 1.807660 -0.235784 1.0000 1.0000 1.0000
v 0.218791 1.817660 -0.235784 1.0000 1.0000 1.0000
v 0.232933 1.817660 -0.221641 1.0000 1.0000 1.0000
v 0.242933 1.807660 -0.235784 1.0000 1.0000 1.0000
v 0.232933 1.807660 -0.245784 1.0000 1.0000 1.0000
v 0.232933 1.817660 0.236236 1.0000 1.0000 1.0000
v 0.218791 1.817660 0.250378 1.0000 1.0000 1.0000
v 0.232933 1.807660 0.260378 1.0000 1.0000 1.0000
v 0.242933 1.807660 0.250378 1.0000 1.0000 1.0000
v -0.094751 1.856910 0.104966 1.0000 1.0000 1.0000
v -0.107816 1.856910 0.091900 1.0000 1.0000 1.0000
v -0.115785 1.866910 0.098793 1.0000 1.0000 1.0000
v -0.101643 1.866910 0.112935 1.0000 1.0000 1.0000
v -0.107816 1.856910 -0.077306 1.0000 1.0000 1.0000
v -0.094751 1.856910 -0.090372 1.0000 1.0000 1.0000
v -0.101643 1.866910 -0.098341 1.0000 1.0000 1.0000
v -0.115785 1.866910 -0.084199 1.0000 1.0000 1.0000
v 0.074456 1.856910 -0.090372 1.0000 1.0000 1.0000
v 0.087521 1.856910 -0.077306 1.0000 1.0000 1.0000
v 0.095490 1.866910 -0.084199 1.0000 1.0000 1.0000
v 0.081348 1.866910 -0.098341 1.0000 1.0000 1.0000
v 0.087521 1.856910 0.091900 1.0000 1.0000 1.0000
v 0.074456 1.856910 0.104966 1.0000 1.0000 1.0000
v 0.081348 1.866910 0.112935 1.0000 1.0000 1.0000
v 0.095490 1.866910 0.098793 1.0000 1.0000 1.0000
v -0.118007 1.866910 0.129299 1.0000 1.0000 1.0000
v -0.132150 1.866910 0.115157 1.0000 1.0000 1.0000
v -0.139488 1.856910 0.123572 1.0000 1.0000 1.0000
v -0.126422 1.856910 0.136637 1.0000 1.0000 1.0000
v -0.132150 1.866910 -0.100563 1.0000 1.0000 1.0000
v -0.118007 1.866910 -0.114705 1.0000 1.0000 1.0000
v -0.126422 1.856910 -0.122043 1.0000 1.0000 1.0000
v -0.139488 1.856910 -0.108978 1.0000 1.0000 1.0000
v 0.097712 1.866910 -0.114705 1.0000 1.0000 1.0000
v 0.111854 1.866910 -0.100563 1.0000 1.0000 1.0000
v 0.119193 1.856910 -0.108978 1.0000 1.0000 1.0000
v 0.106127 1.856910 -0.122043 1.0000 1.0000 1.0000
v 0.111854 1.866910 0.115157 1.0000 1.0000 1.0000
v 0.097712 1.866910 0.129299 1.0000 1.0000 1.0000
v 0.106127 1.856910 0.136637 1.0000 1.0000 1.0000
v 0.119193 1.856910 0.123572 1.0000 1.0000 1.0000
v -0.096336 1.820695 0.093486 1.0000 1.0000 1.0000
v -0.107816 1.830695 0.091900 1.0000 1.0000 1.0000
v -0.094751 1.830695 0.104966 1.0000 1.0000 1.0000
v -0.096336 1.820695 -0.078891 1.0000 1.0000 1.0000
v -0.094751 1.830695 -0.090372 1.0000 1.0000 1.0000
v -0.107816 1.830695 -0.077306 1.0000 1.0000 1.0000
v 0.076041 1.820695 -0.078891 1.0000 1.0000 1.0000
v 0.087521 1.830695 -0.077306 1.0000 1.0000 1.0000
v 0.074456 1.830695 -0.090372 1.0000 1.0000 1.0000
v 0.076041 1.820695 0.093486 1.0000 1.0000 1.0000
v 0.074456 1.830695 0.104966 1.0000 1.0000 1.0000
v 0.087521 1.830695 0.091900 1.0000 1.0000 1.0000
v -0.435885 0.148489 0.422824 1.0000 1.0000 1.0000
v -0.435993 0.128898 0.422953 1.0000 1.0000 1.0000
v -0.425803 0.128898 0.433143 1.0000 1.0000 1.0000
v -0.425674 0.148489 0.433035 1.0000 1.0000 1.0000
v -0.425803 0.128898 -0.418548 1.0000 1.0000 1.0000
v -0.435993 0.128898 -0.408358 1.0000 1.0000 1.0000
v -0.435885 0.148489 -0.408229 1.0000 1.0000 1.0000
v -0.425674 0.148489 -0.418440 1.0000 1.0000 1.0000
v 0.415698 0.128898 -0.408358 1.0000 1.0000 1.0000
v 0.405508 0.128898 -0.418548 1.0000 1.0000 1.0000
v 0.405379 0.148489 -0.418440 1.0000 1.0000 1.0000
v 0.415590 0.148489 -0.408229 1.0000 1.0000 1.0000
v 0.405508 0.128898 0.433143 1.0000 1.0000 1.0000
v 0.415698 0.128898 0.422953 1.0000 1.0000 1.0000
v 0.415590 0.148489 0.422824 1.0000 1.0000 1.0000
v 0.405379 0.148489 0.433035 1.0000 1.0000 1.0000
v -0.401169 0.004537 0.017297 0.0000 0.0000 0.0000
v -0.413126 0.014344 0.017297 1.0000 1.0000 1.0000
v -0.413126 0.014344 -0.002703 1.0000 1.0000 1.0000
v -0.401169 0.004537 -0.002703 0.0000 0.0000 0.0000
v 0.380873 0.004537 -0.002703 0.0000 0.0000 0.0000
v 0.392831 0.014344 -0.002703 1.0000 1.0000 1.0000
v 0.392831 0.014344 0.017297 1.0000 1.0000 1.0000
v 0.380873 0.004537 0.017297 0.0000 0.0000 0.0000
v -0.302791 0.265576 -0.002703 1.0000 1.0000 1.0000
v -0.302791 0.265576 0.017297 1.0000 1.0000 1.0000
v -0.291827 0.275530 0.017382 1.0000 1.0000 1.0000
v -0.291827 0.275530 -0.002619 1.0000 1.0000 1.0000
v 0.282495 0.265576 0.017297 1.0000 1.0000 1.0000
v 0.282495 0.265576 -0.002703 1.0000 1.0000 1.0000
v 0.271747 0.275548 -0.002741 1.0000 1.0000 1.0000
v 0.271747 0.275548 0.017259 1.0000 1.0000 1.0000
v -0.185612 1.735074 -0.003047 1.0000 1.0000 1.0000
v -0.185612 1.735074 0.016965 1.0000 1.0000 1.0000
v -0.195582 1.745074 0.017297 1.0000 1.0000 1.0000
v -0.195582 1.745074 -0.002703 1.0000 1.0000 1.0000
v 0.165542 1.735078 0.017272 1.0000 1.0000 1.0000
v 0.165542 1.735078 -0.002728 1.0000 1.0000 1.0000
v 0.175287 1.745074 -0.002703 1.0000 1.0000 1.0000
v 0.175287 1.745074 0.017297 1.0000 1.0000 1.0000
v -0.194332 1.817660 -0.002703 1.0000 1.0000 1.0000
v -0.194332 1.817660 0.017297 1.0000 1.0000 1.0000
v -0.183824 1.827660 0.016536 1.0000 1.0000 1.0000
v -0.183824 1.827660 -0.001942 1.0000 1.0000 1.0000
v 0.163528 1.827660 0.016536 1.0000 1.0000 1.0000
v 0.174037 1.817660 0.017297 1.0000 1.0000 1.0000
v 0.174037 1.817660 -0.002703 1.0000 1.0000 1.0000
v 0.163528 1.827660 -0.001942 1.0000 1.0000 1.0000
v -0.183824 1.856910 -0.001942 1.0000 1.0000 1.0000
v -0.183824 1.856910 0.016536 1.0000 1.0000 1.0000
v -0.172685 1.866910 0.017297 1.0000 1.0000 1.0000
v -0.172685 1.866910 -0.002703 1.0000 1.0000 1.0000
v 0.163528 1.856910 0.016536 1.0000 1.0000 1.0000
v 0.163528 1.856910 -0.001942 1.0000 1.0000 1.0000
v 0.152389 1.866910 -0.002703 1.0000 1.0000 1.0000
v 0.152389 1.866910 0.017297 1.0000 1.0000 1.0000
v -0.149542 1.866910 -0.002703 1.0000 1.0000 1.0000
v -0.149542 1.866910 0.017297 1.0000 1.0000 1.0000
v -0.139033 1.856910 0.016536 1.0000 1.0000 1.0000
v -0.139033 1.856910 -0.001942 1.0000 1.0000 1.0000
v 0.118738 1.856910 0.016536 1.0000 1.0000 1.0000
v 0.129247 1.866910 0.017297 1.0000 1.0000 1.0000
v 0.129247 1.866910 -0.002703 1.0000 1.0000 1.0000
v 0.118738 1.856910 -0.001942 1.0000 1.0000 1.0000
v -0.127894 1.820695 -0.002703 1.0000 1.0000 1.0000
v -0.139033 1.830695 -0.001942 1.0000 1.0000 1.0000
v -0.139033 1.830695 0.016536 1.0000 1.0000 1.0000
v -0.127894 1.820695 0.017297 1.0000 1.0000 1.0000
v 0.118738 1.830695 0.016536 1.0000 1.0000 1.0000
v 0.118738 1.830695 -0.001942 1.0000 1.0000 1.0000
v 0.107599 1.820695 -0.002703 1.0000 1.0000 1.0000
v 0.107599 1.820695 0.017297 1.0000 1.0000 1.0000
v -0.020148 0.014344 -0.395682 1.0000 1.0000 1.0000
v -0.000148 0.014344 -0.395681 1.0000 1.0000 1.0000
v -0.000148 0.004537 -0.383724 0.0000 0.0000 0.0000
v -0.020148 0.004537 -0.383724 0.0000 0.0000 0.0000
v -0.000148 0.255792 -0.395789 1.0000 1.0000 1.0000
v -0.020148 0.255792 -0.395789 1.0000 1.0000 1.0000
v -0.020148 0.265576 -0.383724 1.0000 1.0000 1.0000
v -0.000148 0.265576 -0.383724 1.0000 1.0000 1.0000
v -0.000148 0.004537 0.398318 0.0000 0.0000 0.0000
v -0.000148 0.014344 0.410276 1.0000 1.0000 1.0000
v -0.020148 0.014344 0.410276 1.0000 1.0000 1.0000
v -0.020148 0.004537 0.398318 0.0000 0.0000 0.0000
v -0.000148 0.265576 -0.285346 1.0000 1.0000 1.0000
v -0.020148 0.265576 -0.285346 1.0000 1.0000 1.0000
v -0.019981 0.275550 -0.274616 1.0000 1.0000 1.0000
v 0.000022 0.275550 -0.274616 1.0000 1.0000 1.0000
v -0.020148 0.265576 0.299940 1.0000 1.0000 1.0000
v -0.000148 0.265576 0.299940 1.0000 1.0000 1.0000
v -0.000230 0.275548 0.289183 1.0000 1.0000 1.0000
v -0.020231 0.275548 0.289183 1.0000 1.0000 1.0000
v -0.000148 1.745074 -0.178137 1.0000 1.0000 1.0000
v 0.000055 1.735088 -0.168671 1.0000 1.0000 1.0000
v -0.019949 1.735088 -0.168671 1.0000 1.0000 1.0000
v -0.020148 1.745074 -0.178137 1.0000 1.0000 1.0000
v -0.020071 1.735077 0.182965 1.0000 1.0000 1.0000
v -0.000070 1.735077 0.182965 1.0000 1.0000 1.0000
v -0.000148 1.745074 0.192732 1.0000 1.0000 1.0000
v -0.020148 1.745074 0.192732 1.0000 1.0000 1.0000
v -0.000148 1.817660 -0.176888 1.0000 1.0000 1.0000
v -0.020148 1.817660 -0.176888 1.0000 1.0000 1.0000
v -0.019386 1.827660 -0.166379 1.0000 1.0000 1.0000
v -0.000909 1.827660 -0.166379 1.0000 1.0000 1.0000
v -0.020148 1.817660 0.191482 1.0000 1.0000 1.0000
v -0.000148 1.817660 0.191482 1.0000 1.0000 1.0000
v -0.000909 1.827660 0.180973 1.0000 1.0000 1.0000
v -0.019386 1.827660 0.180973 1.0000 1.0000 1.0000
v -0.000909 1.856910 -0.166379 1.0000 1.0000 1.0000
v -0.019386 1.856910 -0.166379 1.0000 1.0000 1.0000
v -0.020148 1.866910 -0.155240 1.0000 1.0000 1.0000
v -0.000148 1.866910 -0.155240 1.0000 1.0000 1.0000
v -0.019386 1.856910 0.180973 1.0000 1.0000 1.0000
v -0.000909 1.856910 0.180973 1.0000 1.0000 1.0000
v -0.000148 1.866910 0.169834 1.0000 1.0000 1.0000
v -0.020148 1.866910 0.169834 1.0000 1.0000 1.0000
v -0.000148 1.866910 -0.132097 1.0000 1.0000 1.0000
v -0.020148 1.866910 -0.132097 1.0000 1.0000 1.0000
v -0.019386 1.856910 -0.121589 1.0000 1.0000 1.0000
v -0.000909 1.856910 -0.121589 1.0000 1.0000 1.0000
v -0.020148 1.866910 0.146692 1.0000 1.0000 1.0000
v -0.000148 1.866910 0.146692 1.0000 1.0000 1.0000
v -0.000909 1.856910 0.136183 1.0000 1.0000 1.0000
v -0.019386 1.856910 0.136183 1.0000 1.0000 1.0000
v -0.000909 1.830695 -0.121589 1.0000 1.0000 1.0000
v -0.019386 1.830695 -0.121589 1.0000 1.0000 1.0000
v -0.020148 1.820695 -0.110449 1.0000 1.0000 1.0000
v -0.000148 1.820695 -0.110449 1.0000 1.0000 1.0000
v -0.020148 1.820695 0.125044 1.0000 1.0000 1.0000
v -0.019386 1.830695 0.136183 1.0000 1.0000 1.0000
v -0.000909 1.830695 0.136183 1.0000 1.0000 1.0000
v -0.000148 1.820695 0.125044 1.0000 1.0000 1.0000
v -0.020148 0.004537 0.017297 0.0000 0.0000 0.0000
v -0.020148 0.004537 -0.002703 0.0000 0.0000 0.0000
v -0.000148 0.004537 -0.002703 0.0000 0.0000 0.0000
v -0.000148 0.004537 0.017297 0.0000 0.0000 0.0000
vn -0.9784 0.2065 -0.0000
vn 0.9807 -0.1958 -0.0000
vn -0.0000 0.0332 -0.9994
vn 0.9954 0.0963 -0.0000
vn -0.0000 0.1109 0.9938
vn -0.9950 0.1003 -0.0000
vn 0.9782 0.2069 -0.0192
vn -0.9618 0.2731 0.0188
vn -0.3827 -0.0000 0.9239
vn 0.0252 0.0444 -0.9987
vn -0.0394 0.0145 0.9991
vn -0.9993 0.0367 -0.0061
vn -0.0046 0.2042 0.9789
vn 0.3827 -0.0000 -0.9239
vn -0.3827 -0.0000 -0.9239
vn 0.9239 -0.0000 -0.3827
vn 0.3827 -0.0000 0.9239
vn -0.9239 -0.0000 0.3827
vn -0.0000 1.0000 -0.0000
vn -0.0000 -0.1958 0.9807
vn -0.9239 -0.0000 -0.3827
vn 0.9239 -0.0000 0.3827
vn 0.0007 0.0826 -0.9966
vn -0.0000 -0.0000 -1.0000
vn -0.0000 -1.0000 -0.0000
vn -0.0000 -0.0000 1.0000
vn 0.0022 0.0317 -0.9995
vn -0.0002 0.0254 0.9997
vn 0.0808 0.1647 -0.9830
vn 0.0019 0.0400 -0.9992
vn -0.0274 0.0807 0.9964
vn 0.1179 0.5070 0.8538
vn -0.0466 0.0745 0.9961
vn -0.0097 -0.0620 -0.9980
vn -0.0000 -0.1958 -0.9807
vn 0.9784 0.2065 -0.0000
vn -0.0000 0.2065 0.9784
vn -0.9807 -0.1958 -0.0000
vn 0.9991 0.0427 0.0010
vn -0.9974 0.0710 0.0138
vn 0.9941 0.1063 -0.0211
vn 1.0000 -0.0000 -0.0000
vn -1.0000 -0.0000 -0.0000
vn 0.9997 0.0235 0.0001
vn -1.0000 -0.0082 -0.0008
vn 0.9777 0.2084 0.0243
vn 0.9739 0.2252 0.0270
vn -0.9951 0.0989 -0.0006
vn -0.9973 -0.0612 -0.0395
vn -0.0000 0.2066 -0.9784
vn -0.4362 0.7870 0.4362
vn -0.4334 0.7899 -0.4339
vn 0.4467 0.7752 0.4467
vn 0.4561 0.7643 -0.4558
vn -0.3127 0.8969 0.3127
vn -0.3127 0.8969 -0.3127
vn 0.3127 0.8969 -0.3127
vn 0.3127 0.8969 0.3127
vn -0.7035 0.0970 0.7040
vn -0.7072 0.0489 -0.7053
vn 0.6942 0.2778 -0.6640
vn 0.7011 0.1251 0.7020
vn -0.7361 -0.0517 0.6749
vn -0.6658 0.1068 -0.7385
vn 0.7124 0.1213 -0.6912
vn 0.6841 0.1145 0.7204
vn -0.6940 0.2323 0.6814
vn -0.6251 0.2888 -0.7252
vn 0.7429 0.2499 -0.6210
vn 0.7077 0.3798 0.5957
vn -0.4764 -0.7390 0.4764
vn -0.4832 -0.7301 -0.4832
vn 0.4801 -0.7342 -0.4801
vn 0.4787 -0.7360 0.4787
vn -0.3574 -0.8629 0.3574
vn -0.3574 -0.8629 -0.3574
vn 0.3574 -0.8629 -0.3574
vn 0.3574 -0.8629 0.3574
vn -0.4874 0.7244 0.4875
vn -0.4874 0.7244 -0.4874
vn 0.4875 0.7244 -0.4874
vn 0.4874 0.7244 0.4875
vn 0.7409 0.3416 -0.5782
vn 0.6326 0.5079 0.5847
vn -0.6760 0.2712 0.6852
vn -0.6497 0.2615 -0.7138
vn 0.6697 0.1290 0.7313
vn -0.7265 0.0100 0.6871
vn -0.6709 0.1701 -0.7217
vn 0.7135 0.1297 -0.6886
vn -0.7187 0.0793 0.6907
vn -0.7234 0.0487 -0.6887
vn 0.6869 0.1348 0.7142
vn 0.6886 0.2917 -0.6639
vn -0.3574 0.8629 0.3574
vn -0.3574 0.8629 -0.3574
vn 0.3574 0.8629 -0.3574
vn 0.3574 0.8629 0.3574
vn 0.4875 0.7244 -0.4875
vn 0.4875 0.7244 0.4875
vn -0.4875 0.7244 0.4875
vn -0.4875 0.7244 -0.4874
vn -0.4724 0.7441 0.4724
vn -0.4724 0.7441 -0.4724
vn 0.4724 0.7441 -0.4724
vn 0.4724 0.7441 0.4724
vn 0.5794 0.5733 -0.5794
vn 0.5794 0.5733 0.5794
vn -0.5794 0.5733 0.5794
vn -0.5794 0.5733 -0.5794
vn -0.7071 0.0086 0.7071
vn -0.7071 0.0086 -0.7071
vn 0.7071 0.0086 -0.7071
vn 0.7071 0.0086 0.7071
vn -0.6299 0.7767 -0.0000
vn 0.6299 0.7767 -0.0000
vn -0.6722 0.7404 -0.0000
vn 0.6801 0.7331 -0.0000
vn -0.9981 0.0620 -0.0006
vn 0.9992 0.0407 0.0010
vn -0.9989 0.0002 -0.0475
vn 0.9871 0.1587 0.0195
vn -0.9614 0.2748 -0.0164
vn 0.9497 0.3130 -0.0005
vn -0.7082 -0.7060 -0.0000
vn 0.7161 -0.6980 -0.0000
vn -0.7071 -0.7071 -0.0000
vn 0.7071 -0.7071 -0.0000
vn -0.7071 0.7071 -0.0000
vn 0.7071 0.7071 -0.0000
vn -0.9852 0.1704 0.0191
vn 0.9880 0.1525 -0.0240
vn -0.9997 0.0100 -0.0235
vn 0.9919 0.1234 0.0316
vn 0.9886 0.1482 0.0270
vn -0.9979 0.0646 -0.0056
vn -0.6894 0.7244 -0.0000
vn 0.6894 0.7244 -0.0000
vn -0.6680 0.7441 -0.0000
vn 0.6680 0.7441 -0.0000
vn 1.0000 0.0055 -0.0000
vn -1.0000 0.0055 -0.0000
vn -0.0000 0.7767 -0.6299
vn -0.0000 0.7767 0.6299
vn -0.0000 0.7325 -0.6808
vn -0.0000 0.7334 0.6798
vn 0.0007 0.0069 -1.0000
vn -0.0014 0.1455 0.9894
vn 0.0234 0.0134 -0.9996
vn -0.0250 0.0533 0.9983
vn 0.0744 0.1172 -0.9903
vn 0.1002 0.3610 0.9272
vn -0.0000 -0.6880 -0.7257
vn -0.0000 -0.6988 0.7153
vn -0.0000 -0.7071 -0.7071
vn -0.0000 -0.7071 0.7071
vn -0.0000 0.7071 -0.7071
vn -0.0000 0.7071 0.7071
vn 0.0319 0.1040 -0.9941
vn 0.0811 0.3697 0.9256
vn 0.0242 0.0627 -0.9977
vn -0.0422 0.0470 0.9980
vn -0.0449 0.0282 -0.9986
vn -0.0354 0.1279 0.9912
vn -0.0000 0.7244 -0.6894
vn -0.0000 0.7244 0.6894
vn -0.0000 0.7441 -0.6680
vn -0.0000 0.7441 0.6680
vn -0.0000 0.0055 1.0000
vn -0.0000 0.0055 -1.0000
vn -0.6776 0.2861 0.6776
vn -0.6805 -0.2717 -0.6805
vn 0.6805 -0.2717 -0.6805
vn 0.6805 -0.2717 0.6805
vn -0.6722 0.7404 -0.0001
vn -0.0011 0.7325 -0.6808
vn 0.6801 0.7331 0.0006
vn -0.0010 0.7334 0.6798
vn -0.7198 0.0190 0.6939
vn -0.7173 0.1524 -0.6799
vn 0.6856 0.1417 0.7140
vn 0.6967 0.0632 -0.7146
vn 0.6689 0.1382 0.7304
vn -0.7249 0.1686 0.6679
vn -0.6706 0.1739 -0.7212
vn 0.7268 0.1107 -0.6779
vn 0.7155 0.4381 -0.5442
vn 0.7218 0.0855 0.6868
vn -0.6157 0.4115 0.6721
vn -0.7106 0.0331 -0.7028
vn -0.7082 -0.7060 -0.0005
vn 0.0010 -0.6880 -0.7257
vn 0.7161 -0.6980 0.0001
vn -0.0001 -0.6988 0.7153
vn 0.7036 0.0346 0.7097
vn -0.7069 0.0244 0.7069
vn -0.6776 0.0565 -0.7332
vn 0.7065 0.0416 -0.7065
vn 0.7071 -0.0000 -0.7071
vn 0.7071 -0.0000 0.7071
vn -0.7071 -0.0000 0.7071
vn -0.7071 -0.0000 -0.7071
vn 0.7189 0.0822 -0.6903
vn 0.6279 0.6232 0.4662
vn -0.7310 0.0697 0.6788
vn -0.5261 0.4847 -0.6987
vn 0.7017 0.1184 0.7026
vn -0.7209 -0.1526 0.6760
vn -0.6978 0.1467 -0.7011
vn 0.7059 0.1594 -0.6901
vn -0.7006 0.1418 0.6993
vn -0.7072 -0.0465 -0.7055
vn 0.7023 0.1002 0.7048
vn 0.6540 0.4393 -0.6159
vn -0.6533 0.7071 -0.2706
vn 0.2706 0.7071 -0.6533
vn 0.6533 0.7071 0.2706
vn -0.2706 0.7071 0.6533
vn -0.6805 -0.2717 0.6805
vn -0.6776 0.2861 -0.6776
vn 0.6776 0.2861 -0.6776
vn 0.6776 0.2861 0.6776
vn -0.6737 0.7390 -0.0000
vn 0.6873 0.7264 -0.0000
vn -0.7124 -0.7018 -0.0000
vn 0.7168 -0.6973 -0.0000
vn -0.6533 0.7071 0.2706
vn 0.6533 0.7071 -0.2706
vn -0.0000 0.7481 -0.6636
vn -0.0000 0.7226 0.6912
vn -0.0000 -0.6755 -0.7374
vn -0.0000 -0.6980 0.7161
vn -0.2706 0.7071 -0.6533
vn 0.2706 0.7071 0.6533
vn -0.0529 0.1222 -0.9911
vn -0.0015 0.0344 -0.9994
vn -0.0018 0.0347 -0.9994
vn 0.9982 0.0552 0.0220
vn 0.9954 0.0956 0.0008
vn 0.9954 0.0956 0.0007
vn -0.0326 0.0425 0.9986
vn -0.0014 0.1096 0.9940
vn -0.0012 0.1097 0.9940
vn -0.9958 0.0919 -0.0045
vn -0.9950 0.1002 -0.0002
vn 0.8496 0.5272 -0.0160
vn -0.8531 0.5216 -0.0067
vn 0.0244 0.0171 -0.9996
vn -0.0130 -0.1426 0.9897
vn -1.0000 -0.0026 -0.0008
vn -0.0262 -0.0060 0.9996
vn 0.0219 0.1167 -0.9929
vn 0.0015 0.0313 -0.9995
vn 0.0629 0.0853 -0.9944
vn -0.0000 0.0307 -0.9995
vn -0.0000 -0.9998 0.0221
vn -0.0057 0.0204 0.9998
vn -0.0001 0.0254 0.9997
vn 0.1637 0.5114 -0.8436
vn 0.0236 0.0120 -0.9997
vn 0.0149 0.0233 0.9996
vn 0.0870 0.3227 0.9425
vn -0.0014 0.1439 0.9896
vn -0.0645 0.3680 -0.9276
vn -0.9807 -0.1957 -0.0000
vn 0.9951 0.0933 0.0342
vn -0.9988 0.0085 -0.0479
vn 0.9988 0.0436 0.0204
vn -0.0112 0.9999 -0.0000
vn 0.9996 0.0273 0.0044
vn -1.0000 -0.0083 -0.0008
vn -0.9998 0.0140 -0.0170
vn -1.0000 -0.0088 -0.0000
vn 0.9845 0.1742 0.0219
vn 1.0000 -0.0055 0.0054
vn -0.9915 0.1284 -0.0203
vn -0.9790 0.2014 -0.0305
vn -0.0000 0.2065 -0.9784
vn -0.4362 0.7868 0.4367
vn -0.4334 0.7901 -0.4334
vn 0.4475 0.7748 0.4466
vn 0.4558 0.7645 -0.4558
vn -0.7059 0.0996 0.7013
vn -0.7042 0.0517 -0.7081
vn 0.6832 0.2661 -0.6800
vn 0.7088 0.1326 0.6928
vn -0.7244 -0.0393 0.6882
vn -0.6821 0.0922 -0.7254
vn 0.7135 0.1205 -0.6902
vn 0.6824 0.1126 0.7222
vn -0.6737 0.2052 0.7100
vn -0.6168 0.2748 -0.7376
vn 0.7672 0.2186 -0.6031
vn 0.7233 0.3638 0.5869
vn -0.4764 -0.7389 0.4764
vn -0.4822 -0.7307 -0.4833
vn -0.4875 0.7244 0.4874
vn 0.4875 0.7244 0.4874
vn 0.6824 0.2877 -0.6720
vn 0.6829 0.4681 0.5608
vn -0.6521 0.2393 0.7194
vn -0.6574 0.2748 -0.7017
vn 0.6705 0.1284 0.7308
vn -0.7331 0.0026 0.6801
vn -0.6795 0.1635 -0.7152
vn 0.7224 0.1412 -0.6769
vn -0.7202 0.0779 0.6894
vn -0.7191 0.0532 -0.6928
vn 0.6773 0.1249 0.7250
vn 0.6686 0.2699 -0.6929
vn -0.4874 0.7244 -0.4875
vn -0.6721 0.7404 -0.0000
vn -0.9977 0.0679 -0.0008
vn 0.9891 0.1474 0.0054
vn -0.9928 0.1105 -0.0469
vn 0.9940 0.1073 0.0224
vn -0.9907 0.1359 -0.0094
vn 0.9943 0.1068 -0.0081
vn -0.9607 0.2769 0.0190
vn 0.9497 0.3121 -0.0254
vn -0.9851 0.1706 -0.0218
vn 0.9906 0.1334 0.0311
vn 0.9988 0.0448 0.0174
vn -0.9988 0.0482 -0.0056
vn -0.0100 0.2679 -0.9634
vn -0.0046 0.0680 0.9977
vn 0.0209 0.0440 -0.9988
vn -0.0204 -0.0619 0.9979
vn 0.1260 0.2925 -0.9479
vn 0.0459 0.1703 0.9843
vn 0.0788 0.2799 -0.9568
vn 0.0543 0.1728 0.9834
vn 0.0242 0.0674 -0.9974
vn -0.0403 0.0004 0.9992
vn -0.0531 0.2193 -0.9742
vn -0.0333 0.0526 0.9981
vn -0.6707 0.7417 -0.0000
vn -0.0000 0.7187 -0.6953
vn 0.6722 0.7404 -0.0000
vn -0.0000 0.7453 0.6667
vn -0.7067 0.0216 0.7072
vn -0.6994 0.1542 -0.6979
vn 0.7076 0.1461 0.6913
vn 0.7054 0.0628 -0.7061
vn 0.6796 0.1338 0.7212
vn -0.6986 0.1717 0.6946
vn -0.6602 0.1787 -0.7295
vn 0.7048 0.1109 -0.7006
vn 0.7419 0.4482 -0.4987
vn 0.6869 0.0896 0.7212
vn -0.6227 0.4136 0.6642
vn -0.6819 0.0327 -0.7308
vn -0.7039 -0.7103 -0.0000
vn -0.0000 -0.6964 -0.7177
vn 0.7153 -0.6988 -0.0000
vn -0.0000 -0.7000 0.7142
vn 0.7067 0.0345 0.7067
vn -0.7152 0.0250 0.6985
vn -0.7073 0.0559 -0.7047
vn 0.7239 0.0406 -0.6887
vn 0.6911 0.0818 -0.7181
vn 0.5831 0.6724 0.4558
vn -0.6935 0.0659 0.7175
vn -0.5700 0.4815 -0.6658
vn 0.6712 0.1197 0.7315
vn -0.7170 -0.1501 0.6808
vn -0.6813 0.1471 -0.7171
vn 0.7087 0.1591 -0.6873
vn -0.7159 0.1428 0.6835
vn -0.7175 -0.0492 -0.6949
vn 0.6812 0.0976 0.7256
vn 0.6439 0.4301 -0.6328
vn 0.6801 0.7331 0.0005
vn -0.0013 0.7325 -0.6808
vn -0.0009 0.7334 0.6798
vn 0.0015 -0.6880 -0.7258
vt 0.371255 0.549049
vt 0.338236 0.810704
vt 0.338041 0.541894
vt 0.829621 0.675512
vt 0.864091 0.538070
vt 0.829714 0.799328
vt 0.169385 0.397647
vt 0.097929 0.499905
vt 0.091812 0.500147
vt 0.549556 0.407008
vt 0.473166 0.497383
vt 0.467045 0.497383
vt 0.359837 0.418890
vt 0.286573 0.497554
vt 0.280449 0.497554
vt 0.729994 0.412409
vt 0.659664 0.497366
vt 0.653543 0.497366
vt 0.414160 0.156643
vt 0.526680 0.156995
vt 0.409802 0.164429
vt 0.603140 0.114129
vt 0.717122 0.124520
vt 0.597540 0.130947
vt 0.894376 0.869319
vt 0.904262 0.904002
vt 0.895324 0.904036
vt 0.026314 0.277900
vt 0.156848 0.276482
vt 0.024693 0.287599
vt 0.220809 0.254457
vt 0.349178 0.276530
vt 0.219093 0.264876
vt 0.581760 0.385177
vt 0.729832 0.405949
vt 0.582017 0.412403
vt 0.358486 0.385355
vt 0.208795 0.401440
vt 0.208648 0.385326
vt 0.727580 0.938276
vt 0.737543 0.961730
vt 0.729544 0.962240
vt 0.277094 0.886531
vt 0.285354 0.921603
vt 0.276413 0.921614
vt 0.880613 0.828915
vt 0.888820 0.863922
vt 0.879881 0.863937
vt 0.895090 0.828789
vt 0.903297 0.863306
vt 0.894358 0.863340
vt 0.898847 0.368662
vt 0.907083 0.403668
vt 0.898143 0.403682
vt 0.784224 0.378263
vt 0.758580 0.395580
vt 0.781512 0.371345
vt 0.545069 0.903014
vt 0.553913 0.926798
vt 0.545918 0.927330
vt 0.711406 0.907606
vt 0.720287 0.931738
vt 0.712289 0.932252
vt 0.727229 0.932312
vt 0.734326 0.907112
vt 0.735228 0.931801
vt 0.897312 0.455700
vt 0.906174 0.479834
vt 0.898177 0.480348
vt 0.841645 0.438947
vt 0.825259 0.466049
vt 0.822547 0.459130
vt 0.784224 0.459130
vt 0.758580 0.441813
vt 0.765126 0.438947
vt 0.841645 0.398446
vt 0.825259 0.371345
vt 0.848192 0.395580
vt 0.922425 0.154710
vt 0.956896 0.016891
vt 0.922518 0.278571
vt 0.843989 0.432968
vt 0.850535 0.401559
vt 0.850535 0.435834
vt 0.714630 0.962231
vt 0.720639 0.937704
vt 0.722627 0.961718
vt 0.898530 0.486313
vt 0.908540 0.509811
vt 0.900544 0.510324
vt 0.758964 0.164162
vt 0.758964 0.016001
vt 0.776997 0.093317
vt 0.762783 0.432968
vt 0.756237 0.401559
vt 0.762783 0.404425
vt 0.879900 0.869913
vt 0.889786 0.904120
vt 0.880847 0.904135
vt 0.899073 0.443882
vt 0.907100 0.409644
vt 0.908013 0.443868
vt 0.630621 0.786494
vt 0.600499 0.667779
vt 0.600499 0.661307
vt 0.391174 0.542592
vt 0.421296 0.661307
vt 0.421296 0.667779
vt 0.023810 0.294165
vt 0.165201 0.378510
vt 0.016177 0.384406
vt 0.052632 0.982793
vt 0.036558 0.825531
vt 0.052632 0.825563
vt 0.907818 0.016001
vt 0.907818 0.164162
vt 0.889785 0.086846
vt 0.903488 0.191588
vt 0.836453 0.210241
vt 0.830329 0.210241
vt 0.763294 0.348901
vt 0.830329 0.330247
vt 0.836453 0.330247
vt 0.073866 0.982715
vt 0.057797 0.825411
vt 0.073866 0.825405
vt 0.074834 0.027016
vt 0.136088 0.149630
vt 0.027272 0.028898
vt 0.280429 0.024056
vt 0.334212 0.024056
vt 0.230093 0.147079
vt 0.136908 0.156169
vt 0.023970 0.130699
vt 0.029577 0.120252
vt 0.139960 0.171481
vt 0.026622 0.271280
vt 0.022576 0.136977
vt 0.224719 0.162324
vt 0.349897 0.259787
vt 0.221451 0.248023
vt 0.228849 0.153567
vt 0.340584 0.132300
vt 0.227592 0.155782
vt 0.349200 0.282942
vt 0.208913 0.378893
vt 0.218275 0.271295
vt 0.166237 0.384720
vt 0.016707 0.411154
vt 0.015990 0.390863
vt 0.910986 0.675464
vt 0.945502 0.538084
vt 0.911073 0.799263
vt 0.903306 0.545272
vt 0.870282 0.806927
vt 0.870080 0.538117
vt 0.962885 0.016926
vt 0.996301 0.278508
vt 0.963087 0.285834
vt 0.297556 0.679292
vt 0.332051 0.541847
vt 0.297646 0.803108
vt 0.816890 0.375786
vt 0.787170 0.368868
vt 0.819602 0.368868
vt 0.816890 0.461607
vt 0.787170 0.468525
vt 0.789882 0.461607
vt 0.532417 0.815221
vt 0.553585 0.869229
vt 0.486970 0.866753
vt 0.546271 0.933298
vt 0.556302 0.957125
vt 0.548307 0.957658
vt 0.903488 0.168738
vt 0.763294 0.168738
vt 0.836453 0.149680
vt 0.763294 0.011425
vt 0.903488 0.011425
vt 0.830329 0.030483
vt 0.276430 0.927590
vt 0.286254 0.961728
vt 0.277313 0.961740
vt 0.395504 0.791070
vt 0.507836 0.759237
vt 0.513959 0.759237
vt 0.507836 0.538016
vt 0.513959 0.569849
vt 0.507836 0.569849
vt 0.406278 0.282961
vt 0.544672 0.378722
vt 0.395604 0.378723
vt 0.717830 0.130566
vt 0.593488 0.260281
vt 0.596162 0.137434
vt 0.529023 0.162882
vt 0.406807 0.248236
vt 0.407295 0.171048
vt 0.289552 0.693482
vt 0.273482 0.536201
vt 0.289552 0.536230
vt 0.289554 0.870147
vt 0.273482 0.712866
vt 0.289554 0.712894
vt 0.758964 0.196164
vt 0.776614 0.267008
vt 0.776614 0.273480
vt 0.907818 0.344325
vt 0.890168 0.273480
vt 0.890168 0.267008
vt 0.473033 0.023885
vt 0.523568 0.148276
vt 0.419256 0.023886
vt 0.653507 0.023875
vt 0.714175 0.107602
vt 0.605773 0.023877
vt 0.406765 0.254669
vt 0.536379 0.264585
vt 0.406618 0.276469
vt 0.394173 0.385132
vt 0.548646 0.400484
vt 0.391518 0.391460
vt 0.595315 0.283424
vt 0.731164 0.378713
vt 0.582207 0.378709
vt 0.723133 0.272413
vt 0.595347 0.276980
vt 0.593925 0.266751
vt 0.984784 0.669085
vt 0.984788 0.675554
vt 0.951681 0.806904
vt 0.763094 0.504064
vt 0.752083 0.515660
vt 0.752102 0.504044
vt 0.800728 0.515710
vt 0.789736 0.504093
vt 0.800728 0.504093
vt 0.773855 0.495965
vt 0.784253 0.483753
vt 0.784832 0.495354
vt 0.782170 0.504113
vt 0.771003 0.515542
vt 0.771179 0.503927
vt 0.594081 0.755642
vt 0.600499 0.754661
vt 0.596169 0.759237
vt 0.594054 0.573471
vt 0.600499 0.574426
vt 0.597130 0.576730
vt 0.424653 0.752619
vt 0.425626 0.759237
vt 0.421296 0.754661
vt 0.424527 0.576429
vt 0.425626 0.569849
vt 0.427593 0.573192
vt 0.631189 0.794975
vt 0.634315 0.791670
vt 0.634315 0.537416
vt 0.626291 0.538016
vt 0.631189 0.534112
vt 0.390607 0.534112
vt 0.387480 0.537416
vt 0.387480 0.791670
vt 0.390607 0.794975
vt 0.579026 0.378534
vt 0.578615 0.384986
vt 0.012986 0.384360
vt 0.012826 0.390808
vt 0.392435 0.378541
vt 0.390819 0.384738
vt 0.205606 0.385197
vt 0.205856 0.378696
vt 0.590658 0.266077
vt 0.023319 0.271528
vt 0.022883 0.277971
vt 0.403543 0.254922
vt 0.217700 0.253983
vt 0.218348 0.247553
vt 0.600894 0.108468
vt 0.599834 0.114824
vt 0.026458 0.119031
vt 0.031079 0.113997
vt 0.415543 0.150171
vt 0.410487 0.155084
vt 0.412299 0.148594
vt 0.528731 0.153114
vt 0.524971 0.154243
vt 0.780945 0.330247
vt 0.779630 0.323840
vt 0.782692 0.327077
vt 0.780945 0.210241
vt 0.779704 0.216441
vt 0.776615 0.214817
vt 0.885838 0.210241
vt 0.887190 0.216617
vt 0.884127 0.213379
vt 0.885838 0.330247
vt 0.887177 0.323857
vt 0.890168 0.325671
vt 0.758964 0.352136
vt 0.758964 0.344325
vt 0.758964 0.188352
vt 0.755903 0.191588
vt 0.910880 0.191588
vt 0.907818 0.188352
vt 0.910880 0.348901
vt 0.903488 0.348901
vt 0.793790 0.052457
vt 0.795680 0.045651
vt 0.797790 0.048229
vt 0.793789 0.127706
vt 0.795680 0.134512
vt 0.791350 0.129936
vt 0.872993 0.127706
vt 0.871103 0.134512
vt 0.868992 0.131934
vt 0.868992 0.048229
vt 0.875433 0.050227
vt 0.872993 0.052457
vt 0.405900 0.163692
vt 0.532039 0.161931
vt 0.529798 0.155344
vt 0.344618 0.137565
vt 0.343598 0.131052
vt 0.019419 0.135905
vt 0.215917 0.264680
vt 0.592021 0.282853
vt 0.021370 0.287651
vt 0.403387 0.276648
vt 0.578467 0.418601
vt 0.578778 0.412095
vt 0.016672 0.417646
vt 0.013529 0.411497
vt 0.205425 0.407277
vt 0.205688 0.400710
vt 0.389893 0.397793
vt 0.388230 0.391522
vt 0.758964 0.008189
vt 0.758964 0.171974
vt 0.755902 0.168738
vt 0.907818 0.171974
vt 0.910880 0.011425
vt 0.821101 0.456083
vt 0.815874 0.458371
vt 0.840927 0.405499
vt 0.843989 0.404425
vt 0.790898 0.379022
vt 0.789882 0.375786
vt 0.768010 0.437418
vt 0.765845 0.431895
vt 0.821122 0.471761
vt 0.819602 0.468525
vt 0.851432 0.394429
vt 0.853597 0.399952
vt 0.780423 0.367920
vt 0.785649 0.365632
vt 0.753175 0.437441
vt 0.756237 0.435834
vt 0.908540 0.454362
vt 0.905309 0.455186
vt 0.905300 0.450835
vt 0.556302 0.901774
vt 0.553064 0.902481
vt 0.553063 0.898271
vt 0.722627 0.906270
vt 0.719404 0.907093
vt 0.719386 0.902743
vt 0.737543 0.906273
vt 0.734300 0.902743
vt 0.332235 0.538460
vt 0.338225 0.538500
vt 0.945680 0.534682
vt 0.951492 0.538132
vt 0.864282 0.534683
vt 0.963076 0.013641
vt 0.630621 0.542592
vt 0.391174 0.786494
vt 0.597142 0.661335
vt 0.424587 0.667767
vt 0.731208 0.385171
vt 0.545510 0.385183
vt 0.722844 0.265968
vt 0.535708 0.247340
vt 0.714975 0.113662
vt 0.604075 0.107721
vt 0.779667 0.273373
vt 0.779667 0.266897
vt 0.887184 0.273472
vt 0.755902 0.348901
vt 0.907818 0.196164
vt 0.292793 0.717385
vt 0.292793 0.865489
vt 0.292797 0.540720
vt 0.292797 0.688824
vt 0.723636 0.282114
vt 0.536716 0.271030
vt 0.581742 0.418889
vt 0.894894 0.403535
vt 0.898161 0.409659
vt 0.894913 0.410004
vt 0.876646 0.870259
vt 0.851432 0.442965
vt 0.853597 0.437441
vt 0.755340 0.394429
vt 0.753175 0.399952
vt 0.894919 0.480405
vt 0.895301 0.486862
vt 0.709419 0.938764
vt 0.712641 0.938217
vt 0.508961 0.891334
vt 0.504824 0.885622
vt 0.510482 0.888098
vt 0.539164 0.814273
vt 0.533938 0.811985
vt 0.513959 0.534112
vt 0.507836 0.534112
vt 0.626291 0.791070
vt 0.513908 0.573321
vt 0.507784 0.573321
vt 0.507861 0.755756
vt 0.513985 0.755756
vt 0.358059 0.378904
vt 0.151770 0.255207
vt 0.150590 0.248864
vt 0.336377 0.115226
vt 0.830390 0.213304
vt 0.830353 0.327087
vt 0.763294 0.191588
vt 0.907818 0.352136
vt 0.055865 0.830038
vt 0.055865 0.978121
vt 0.077112 0.829999
vt 0.077112 0.978157
vt 0.138784 0.164899
vt 0.341538 0.138569
vt 0.157897 0.282878
vt 0.359458 0.412388
vt 0.208522 0.407867
vt 0.273189 0.927950
vt 0.891122 0.869557
vt 0.821122 0.365632
vt 0.780423 0.469473
vt 0.785649 0.471761
vt 0.543036 0.933739
vt 0.723985 0.932383
vt 0.724365 0.938838
vt 0.556825 0.870381
vt 0.555929 0.863250
vt 0.558990 0.864857
vt 0.483908 0.838462
vt 0.489314 0.834090
vt 0.486970 0.840069
vt 0.371439 0.545655
vt 0.910895 0.545198
vt 0.395504 0.538016
vt 0.829714 0.541840
vt 0.922518 0.021100
vt 0.957086 0.013613
vt 0.178025 0.496734
vt 0.098099 0.503322
vt 0.596169 0.569849
vt 0.421296 0.574426
vt 0.011761 0.503322
vt 0.013458 0.417957
vt 0.383628 0.497180
vt 0.386889 0.397704
vt 0.403009 0.283109
vt 0.221704 0.162874
vt 0.836515 0.213304
vt 0.229747 0.023857
vt 0.227005 0.148265
vt 0.602627 0.023684
vt 0.027831 0.112966
vt 0.416109 0.023685
vt 0.776614 0.325671
vt 0.289742 0.532906
vt 0.273672 0.532876
vt 0.074056 0.822189
vt 0.289737 0.709571
vt 0.273664 0.709543
vt 0.052809 0.822224
vt 0.403585 0.248478
vt 0.790406 0.492902
vt 0.788547 0.498347
vt 0.788793 0.492699
vt 0.593048 0.138047
vt 0.590287 0.259624
vt 0.215112 0.271094
vt 0.592032 0.276440
vt 0.020560 0.294092
vt 0.573543 0.497366
vt 0.570378 0.497178
vt 0.197260 0.497366
vt 0.200319 0.497554
vt 0.780215 0.093071
vt 0.836220 0.146280
vt 0.886567 0.087092
vt 0.830562 0.033883
vt 0.791350 0.050227
vt 0.875433 0.129936
vt 0.871103 0.045651
vt 0.889786 0.824556
vt 0.880847 0.824571
vt 0.904262 0.824552
vt 0.904028 0.828755
vt 0.908013 0.364305
vt 0.899073 0.364319
vt 0.286254 0.882157
vt 0.286035 0.886520
vt 0.840927 0.431895
vt 0.815874 0.379022
vt 0.765845 0.405499
vt 0.790898 0.458371
vt 0.533938 0.891334
vt 0.558990 0.838462
vt 0.508961 0.811985
vt 0.483908 0.864857
vt 0.711388 0.903256
vt 0.726328 0.907623
vt 0.897303 0.451349
vt 0.545067 0.898803
vt 0.297462 0.549007
vt 0.297646 0.545620
vt 0.984875 0.541850
vt 0.984697 0.545259
vt 0.870271 0.534723
vt 0.903497 0.541878
vt 0.996301 0.020974
vt 0.996110 0.024258
vt 0.597155 0.752385
vt 0.890168 0.214817
vt 0.780215 0.087092
vt 0.886567 0.093071
vt 0.848192 0.441813
vt 0.826349 0.469473
vt 0.785671 0.381310
vt 0.765126 0.398446
vt 0.486073 0.870381
vt 0.538075 0.817697
vt 0.556825 0.832938
vt 0.555929 0.836566
vt 0.280405 0.500990
vt 0.198196 0.500990
vt 0.074765 0.023968
vt 0.025441 0.025921
vt 0.884115 0.327094
vt 0.797790 0.131934
vt 0.830329 0.149680
vt 0.836220 0.033883
vt 0.826349 0.367920
vt 0.781512 0.466049
vt 0.755340 0.442965
vt 0.821101 0.381310
vt 0.838762 0.399975
vt 0.785671 0.456083
vt 0.539164 0.889046
vt 0.535731 0.888098
vt 0.503734 0.814273
vt 0.507168 0.815221
vt 0.822547 0.378263
vt 0.371439 0.803206
vt 0.829616 0.669043
vt 0.829523 0.545227
vt 0.864294 0.806963
vt 0.386775 0.497384
vt 0.553423 0.497384
vt 0.366668 0.497558
vt 0.739688 0.497366
vt 0.903315 0.869284
vt 0.349930 0.266212
vt 0.735579 0.937766
vt 0.889552 0.828900
vt 0.907787 0.368648
vt 0.922420 0.148238
vt 0.922327 0.024377
vt 0.957098 0.285883
vt 0.906527 0.485799
vt 0.776997 0.086846
vt 0.888839 0.869898
vt 0.036558 0.982761
vt 0.889785 0.093317
vt 0.057796 0.982721
vt 0.080951 0.026774
vt 0.128503 0.024890
vt 0.286552 0.024056
vt 0.335441 0.108859
vt 0.232791 0.024057
vt 0.168198 0.391485
vt 0.910982 0.668996
vt 0.945690 0.806939
vt 0.903497 0.799429
vt 0.297552 0.672823
vt 0.332246 0.810741
vt 0.554267 0.932765
vt 0.836453 0.030483
vt 0.285371 0.927579
vt 0.513959 0.538016
vt 0.273482 0.693453
vt 0.273482 0.870119
vt 0.466912 0.023885
vt 0.520690 0.023884
vt 0.659632 0.023875
vt 0.707356 0.023872
vt 0.536066 0.253789
vt 0.724050 0.288559
vt 0.984875 0.799380
vt 0.763075 0.515680
vt 0.789736 0.515710
vt 0.773276 0.484365
vt 0.781994 0.515728
vt 0.427730 0.755857
vt 0.526499 0.146690
vt 0.782766 0.213194
vt 0.404181 0.170267
vt 0.020831 0.129860
vt 0.755903 0.011425
vt 0.910880 0.168738
vt 0.907818 0.008189
vt 0.951670 0.534722
vt 0.597142 0.667807
vt 0.424587 0.661295
vt 0.887184 0.267000
vt 0.876625 0.863790
vt 0.709038 0.932308
vt 0.503734 0.889046
vt 0.836477 0.327087
vt 0.273170 0.921482
vt 0.891102 0.863086
vt 0.542653 0.927280
vt 0.486073 0.832938
vt 0.911073 0.541795
vt 0.180208 0.500071
vt 0.008581 0.503253
vt 0.339286 0.114137
vt 0.024108 0.028848
vt 0.057986 0.822195
vt 0.036735 0.822192
vt 0.790852 0.498347
vt 0.895324 0.824586
vt 0.277313 0.882168
vt 0.726302 0.903254
vt 0.838762 0.437418
vt 0.768010 0.399975
vt 0.830562 0.146280
s 0
g off
g Cube.001_bata
usemtl bata
f 29/1/1 290/2/1 284/3/1
f 306/4/2 292/5/2 15/6/2
f 186/7/3 371/8/3 370/9/3
f 183/10/4 315/11/4 314/12/4
f 175/13/5 375/14/5 374/15/5
f 178/16/6 311/17/6 310/18/6
f 87/19/7 147/20/7 141/21/7
f 79/22/8 155/23/8 149/24/8
f 391/25/9 259/26/9 125/27/9
f 67/28/10 171/29/10 165/30/10
f 75/31/11 163/32/11 157/33/11
f 47/34/12 179/35/12 173/36/12
f 48/37/13 181/38/13 59/39/13
f 407/40/14 274/41/14 240/42/14
f 130/43/15 393/44/15 386/45/15
f 134/46/16 337/47/16 331/48/16
f 138/49/17 397/50/17 390/51/17
f 126/52/18 333/53/18 326/54/18
f 250/55/19 338/56/19 265/57/19
f 245/58/17 409/59/17 402/60/17
f 249/61/18 353/62/18 347/63/18
f 406/64/15 282/65/15 414/66/15
f 241/67/16 350/68/16 342/69/16
f 341/70/19 257/71/19 242/72/19
f 405/73/19 269/74/19 254/75/19
f 246/76/19 394/77/19 261/78/19
f 366/79/20 296/80/20 2/81/20
f 340/82/19 260/83/19 335/84/19
f 252/85/21 352/86/21 283/87/21
f 343/88/22 277/89/22 244/90/22
f 228/91/19 225/92/19 324/93/19
f 255/94/19 339/95/19 345/96/19
f 328/97/22 271/98/22 137/99/22
f 129/100/21 332/101/21 263/102/21
f 32/103/19 309/104/19 308/105/19
f 39/106/19 313/107/19 312/108/19
f 166/109/23 54/110/23 51/111/23
f 235/112/24 114/113/24 230/114/24
f 236/115/19 233/116/19 329/117/19
f 120/118/25 376/119/25 379/120/25
f 112/121/25 383/122/25 382/123/25
f 227/124/26 122/125/26 238/126/26
f 378/127/27 85/128/27 99/129/27
f 381/130/28 96/131/28 91/132/28
f 88/133/29 156/134/29 84/135/29
f 143/136/30 66/137/30 153/138/30
f 145/139/31 62/140/31 74/141/31
f 92/142/32 152/143/32 148/144/32
f 162/145/33 58/146/33 158/147/33
f 53/148/34 180/149/34 52/150/34
f 357/151/35 288/152/35 22/153/35
f 40/154/36 298/155/36 295/156/36
f 299/157/37 30/158/37 287/159/37
f 302/160/38 285/161/38 8/162/38
f 400/163/19 264/164/19 395/165/19
f 243/166/19 399/167/19 404/168/19
f 355/169/19 410/170/19 272/171/19
f 403/172/9 280/173/9 248/174/9
f 232/175/19 229/176/19 384/177/19
f 224/178/19 237/179/19 388/180/19
f 387/181/14 267/182/14 133/183/14
f 43/184/19 373/185/19 372/186/19
f 363/187/19 369/188/19 368/189/19
f 169/190/39 57/191/39 55/192/39
f 154/193/40 63/194/40 150/195/40
f 146/196/41 71/197/41 142/198/41
f 239/199/42 118/200/42 234/201/42
f 231/202/43 110/203/43 226/204/43
f 116/205/25 319/206/25 318/207/25
f 124/208/25 323/209/25 322/210/25
f 320/211/44 90/212/44 103/213/44
f 317/214/45 82/215/45 95/216/45
f 72/217/46 160/218/46 172/219/46
f 56/220/47 184/221/47 188/222/47
f 161/223/48 50/224/48 46/225/48
f 68/226/49 164/227/49 64/228/49
f 361/229/50 360/230/50 294/231/50
f 204/232/25 201/233/25 202/234/25
f 212/235/25 205/236/25 207/237/25
f 221/238/25 215/239/25 217/240/25
f 198/241/25 190/242/25 192/243/25
f 4/244/51 6/245/51 7/246/51
f 12/247/52 14/248/52 11/249/52
f 18/250/53 20/251/53 21/252/53
f 26/253/54 28/254/54 25/255/54
f 30/256/55 32/103/55 29/257/55
f 33/258/56 35/259/56 36/260/56
f 37/261/57 39/106/57 40/262/57
f 41/263/58 43/184/58 44/264/58
f 45/265/59 47/34/59 48/266/59
f 50/267/60 52/150/60 49/268/60
f 54/269/61 56/220/61 53/270/61
f 58/146/62 60/271/62 57/272/62
f 61/273/63 63/194/63 64/228/63
f 65/274/64 67/28/64 68/275/64
f 69/276/65 71/197/65 72/217/65
f 74/141/66 76/277/66 73/278/66
f 77/279/67 79/22/67 80/280/67
f 81/281/68 83/282/68 84/135/68
f 86/283/69 88/284/69 85/285/69
f 90/212/70 92/286/70 89/287/70
f 93/288/71 95/289/71 96/290/71
f 98/291/72 100/292/72 97/293/72
f 101/294/73 103/295/73 104/296/73
f 106/297/74 108/298/74 105/299/74
f 109/300/75 111/301/75 112/121/75
f 114/302/76 116/205/76 113/303/76
f 118/304/77 120/118/77 117/305/77
f 121/306/78 123/307/78 124/208/78
f 126/308/79 128/309/79 125/310/79
f 129/311/80 131/312/80 132/313/80
f 134/314/81 136/315/81 133/316/81
f 138/317/82 140/318/82 137/319/82
f 142/198/83 144/320/83 141/21/83
f 145/321/84 147/20/84 148/322/84
f 150/323/85 152/143/85 149/324/85
f 154/325/86 156/134/86 153/138/86
f 158/147/87 160/326/87 157/33/87
f 162/327/88 164/227/88 161/223/88
f 166/109/89 168/328/89 165/30/89
f 169/190/90 171/329/90 172/219/90
f 173/36/91 175/330/91 176/331/91
f 177/332/92 179/333/92 180/149/92
f 181/38/93 183/334/93 184/335/93
f 185/336/94 187/337/94 188/222/94
f 225/92/95 227/338/95 224/178/95
f 228/91/96 230/339/96 231/340/96
f 233/116/97 235/341/97 232/175/97
f 237/179/98 239/342/98 236/115/98
f 241/343/99 243/166/99 240/344/99
f 244/345/100 246/76/100 247/346/100
f 248/347/101 250/55/101 251/348/101
f 253/349/102 255/94/102 252/350/102
f 257/71/103 259/351/103 256/352/103
f 260/83/104 262/353/104 263/354/104
f 264/164/105 266/355/105 267/356/105
f 269/74/106 271/357/106 268/358/106
f 272/359/107 273/360/107 274/361/107
f 275/362/108 276/363/108 277/364/108
f 278/365/109 279/366/109 280/367/109
f 281/368/110 282/65/110 283/369/110
f 284/3/111 286/370/111 287/371/111
f 289/372/112 291/373/112 288/152/112
f 293/374/113 295/156/113 292/5/113
f 296/80/114 298/375/114 299/157/114
f 33/258/115 32/103/115 34/376/115
f 41/263/116 39/106/116 42/377/116
f 309/104/117 311/378/117 308/105/117
f 313/107/118 315/379/118 312/108/118
f 49/380/119 46/225/119 50/224/119
f 60/381/120 55/192/120 57/191/120
f 65/382/121 64/228/121 63/194/121
f 73/383/122 72/217/122 71/197/122
f 81/384/123 78/385/123 82/215/123
f 89/287/124 86/283/124 90/212/124
f 317/386/125 319/206/125 316/387/125
f 320/388/126 322/210/126 323/209/126
f 116/205/127 110/389/127 113/303/127
f 121/306/128 119/390/128 118/304/128
f 231/202/129 225/391/129 228/392/129
f 239/199/130 233/393/130 236/394/130
f 149/24/131 154/193/131 150/195/131
f 141/21/132 146/196/132 142/198/132
f 168/395/133 161/223/133 164/227/133
f 172/219/134 159/396/134 169/190/134
f 188/222/135 183/10/135 185/336/135
f 173/36/136 178/16/136 174/397/136
f 325/398/137 327/399/137 324/400/137
f 329/401/138 331/48/138 328/97/138
f 333/402/139 335/84/139 332/403/139
f 337/404/140 339/95/140 336/405/140
f 341/406/138 343/88/138 340/407/138
f 345/408/137 347/63/137 344/409/137
f 349/410/140 351/411/140 348/412/140
f 353/413/139 355/169/139 352/414/139
f 298/155/141 292/5/141 295/156/141
f 290/2/142 285/161/142 284/3/142
f 361/415/143 363/187/143 360/416/143
f 30/256/144 43/184/144 31/417/144
f 368/189/145 370/418/145 371/419/145
f 372/186/146 374/420/146 375/421/146
f 54/110/147 52/150/147 51/111/147
f 45/422/148 59/39/148 58/146/148
f 69/423/149 66/137/149 70/424/149
f 62/140/150 75/31/150 74/141/150
f 85/128/151 84/135/151 83/282/151
f 91/132/152 80/425/152 92/142/152
f 376/119/153 378/426/153 379/120/153
f 380/427/154 382/123/154 383/122/154
f 117/305/155 115/428/155 114/302/155
f 112/121/156 122/429/156 109/300/156
f 235/112/157 229/430/157 232/431/157
f 227/124/158 237/432/158 224/433/158
f 144/434/159 153/138/159 156/134/159
f 148/144/160 151/435/160 145/139/160
f 165/30/161 170/436/161 166/109/161
f 163/32/162 158/147/162 157/33/162
f 180/149/163 186/7/163 177/332/163
f 176/437/164 182/438/164 181/38/164
f 384/439/165 386/45/165 387/181/165
f 388/440/166 390/51/166 391/25/166
f 392/441/167 394/77/167 395/165/167
f 397/442/168 399/167/168 396/443/168
f 400/444/166 402/60/166 403/172/166
f 405/445/165 407/40/165 404/446/165
f 409/447/168 411/448/168 408/449/168
f 413/450/167 415/451/167 412/452/167
f 287/159/169 296/80/169 299/157/169
f 294/231/170 288/152/170 291/373/170
f 30/453/171 284/3/171 287/371/171
f 9/454/172 289/372/172 288/152/172
f 38/455/143 360/416/143 363/187/143
f 292/5/173 22/456/173 293/374/173
f 296/80/174 15/457/174 297/458/174
f 11/249/175 308/105/175 311/378/175
f 25/459/176 368/460/176 371/8/176
f 18/250/177 312/108/177 315/379/177
f 4/244/178 372/186/178 375/421/178
f 7/246/19 32/103/19 31/417/19
f 13/461/19 34/376/19 14/248/19
f 27/462/19 38/455/19 28/254/19
f 43/184/19 21/252/19 20/251/19
f 176/331/179 47/34/179 173/36/179
f 12/463/180 178/464/180 177/332/180
f 184/335/181 59/39/181 181/38/181
f 185/336/182 25/465/182 186/466/182
f 76/277/183 157/33/183 160/326/183
f 161/223/184 45/265/184 162/327/184
f 68/275/185 165/30/185 168/328/185
f 55/192/186 170/467/186 169/190/186
f 88/284/187 141/21/187 144/320/187
f 74/141/188 146/468/188 145/139/188
f 80/425/189 149/324/189 152/143/189
f 153/138/190 65/274/190 154/325/190
f 319/206/191 100/292/191 316/387/191
f 376/119/192 104/296/192 377/469/192
f 323/209/193 108/298/193 320/388/193
f 383/122/194 96/290/194 380/427/194
f 108/470/195 91/132/195 90/471/195
f 78/385/196 96/472/196 95/216/196
f 82/473/197 99/129/197 83/282/197
f 103/213/198 85/285/198 104/474/198
f 97/293/25 115/428/25 98/291/25
f 119/390/25 101/294/25 120/118/25
f 106/297/25 124/208/25 123/307/25
f 112/121/25 94/475/25 93/288/25
f 235/476/199 118/200/199 117/477/199
f 122/125/200 239/478/200 238/126/200
f 227/479/201 110/203/201 109/480/201
f 114/113/202 231/481/202 230/114/202
f 70/482/203 142/198/203 71/197/203
f 148/483/204 89/484/204 92/485/204
f 151/486/205 63/194/205 62/487/205
f 156/134/206 81/281/206 84/135/206
f 159/488/207 58/146/207 57/272/207
f 64/228/208 163/489/208 61/273/208
f 167/490/209 51/111/209 50/267/209
f 72/217/210 171/329/210 69/276/210
f 175/330/211 5/491/211 4/492/211
f 180/149/212 49/268/212 52/150/212
f 18/493/213 182/438/213 19/494/213
f 188/222/214 53/270/214 56/220/214
f 129/311/215 324/93/215 327/495/215
f 133/316/216 384/177/216 387/496/216
f 137/319/217 329/117/217 328/497/217
f 125/310/218 388/180/218 391/498/218
f 224/178/19 127/499/19 225/92/19
f 229/176/19 132/313/19 131/312/19
f 135/500/19 232/175/19 136/315/19
f 139/501/19 236/115/19 140/318/19
f 335/84/215 263/354/215 332/403/215
f 395/165/216 267/356/216 392/441/216
f 268/358/217 336/405/217 339/95/217
f 256/352/218 396/443/218 399/167/218
f 267/502/199 134/46/199 133/503/199
f 138/49/200 271/504/200 270/505/200
f 259/506/201 126/52/201 125/507/201
f 130/43/202 263/508/202 262/509/202
f 244/345/217 340/82/217 343/510/217
f 403/511/218 251/348/218 400/163/218
f 252/350/215 345/96/215 344/512/215
f 240/344/216 404/168/216 407/513/216
f 256/352/19 242/72/19 257/71/19
f 261/78/19 247/346/19 246/76/19
f 265/57/19 251/348/19 250/55/19
f 254/75/19 268/358/19 255/94/19
f 348/412/217 277/514/217 349/410/217
f 411/448/218 280/515/218 408/449/218
f 355/169/215 283/516/215 352/414/215
f 412/452/216 274/517/216 413/450/216
f 280/367/201 249/61/201 248/518/201
f 253/519/202 283/369/202 282/65/202
f 274/361/199 241/67/199 240/520/199
f 276/363/200 244/521/200 277/364/200
f 286/370/219 3/522/219 2/523/219
f 291/373/220 33/524/220 36/525/220
f 40/154/221 294/526/221 37/527/221
f 299/157/222 41/528/222 44/529/222
f 5/530/223 309/104/223 6/245/223
f 26/253/224 313/107/224 27/462/224
f 318/207/225 95/289/225 94/475/225
f 322/210/226 103/295/226 102/531/226
f 326/532/227 127/499/227 126/308/227
f 331/533/228 135/500/228 134/314/228
f 334/534/227 258/535/227 257/71/227
f 265/57/228 337/404/228 266/355/228
f 241/343/228 341/70/228 242/72/228
f 249/536/227 346/537/227 250/55/227
f 351/411/228 273/538/228 272/171/228
f 354/539/227 279/540/227 278/541/227
f 350/68/42 343/88/42 342/69/42
f 345/96/19 338/56/19 346/537/19
f 340/82/19 334/534/19 341/70/19
f 333/53/43 327/399/43 326/54/43
f 353/62/43 344/409/43 347/63/43
f 337/47/42 328/97/42 331/48/42
f 35/259/143 361/415/143 36/260/143
f 12/247/229 369/188/229 13/461/229
f 19/494/230 373/542/230 20/543/230
f 379/544/231 99/129/231 98/545/231
f 382/123/232 107/546/232 106/297/232
f 130/547/233 385/548/233 131/312/233
f 390/549/234 139/501/234 138/317/234
f 261/78/233 393/550/233 262/353/233
f 398/551/234 270/552/234 269/74/234
f 402/553/234 246/76/234 245/554/234
f 406/555/233 254/75/233 253/349/233
f 410/170/234 276/556/234 275/557/234
f 415/451/233 282/558/233 281/559/233
f 409/59/26 403/172/26 402/60/26
f 414/66/24 407/40/24 406/64/24
f 404/168/19 398/551/19 405/73/19
f 395/165/19 401/560/19 400/163/19
f 393/44/24 387/181/24 386/45/24
f 397/50/26 391/25/26 390/51/26
f 29/1/1 33/561/1 290/2/1
f 305/562/2 23/563/2 292/5/2
f 292/5/2 297/564/2 15/6/2
f 306/4/2 305/562/2 292/5/2
f 12/463/235 177/332/235 186/7/235
f 186/7/236 25/459/236 371/8/236
f 370/9/237 12/463/237 186/7/237
f 26/565/238 185/336/238 183/10/238
f 183/10/239 18/566/239 315/11/239
f 314/12/240 26/565/240 183/10/240
f 19/494/241 182/438/241 175/13/241
f 175/13/242 4/567/242 375/14/242
f 374/15/243 19/494/243 175/13/243
f 5/491/244 174/397/244 178/16/244
f 178/16/245 11/568/245 311/17/245
f 310/18/245 5/491/245 178/16/245
f 87/19/246 89/287/246 147/20/246
f 79/22/247 81/384/247 155/23/247
f 391/25/9 396/569/9 259/26/9
f 67/28/248 69/423/248 171/29/248
f 75/31/249 61/570/249 163/32/249
f 47/34/250 49/380/250 179/35/250
f 48/37/251 176/437/251 181/38/251
f 407/40/14 413/571/14 274/41/14
f 130/43/15 262/509/15 393/44/15
f 134/46/16 266/572/16 337/47/16
f 138/49/17 270/505/17 397/50/17
f 126/52/18 258/573/18 333/53/18
f 250/55/19 346/537/19 338/56/19
f 245/58/17 276/363/17 409/59/17
f 249/61/18 279/366/18 353/62/18
f 406/64/15 253/519/15 282/65/15
f 241/67/16 273/360/16 350/68/16
f 341/70/19 334/534/19 257/71/19
f 405/73/19 398/551/19 269/74/19
f 246/76/19 401/560/19 394/77/19
f 365/574/20 16/575/20 296/80/20
f 296/80/20 286/576/20 2/81/20
f 366/79/20 365/574/20 296/80/20
f 340/82/19 247/346/19 260/83/19
f 252/85/21 344/409/21 352/86/21
f 343/88/22 349/577/22 277/89/22
f 225/92/19 127/499/19 325/578/19
f 324/93/19 132/313/19 228/91/19
f 225/92/19 325/578/19 324/93/19
f 255/94/19 268/358/19 339/95/19
f 328/97/22 336/579/22 271/98/22
f 129/100/21 327/399/21 332/101/21
f 14/248/19 34/376/19 32/103/19
f 32/103/19 6/245/19 309/104/19
f 308/105/19 14/248/19 32/103/19
f 21/252/19 42/377/19 39/106/19
f 39/106/19 27/462/19 313/107/19
f 312/108/19 21/252/19 39/106/19
f 166/109/252 170/436/252 54/110/252
f 235/112/24 117/580/24 114/113/24
f 233/116/19 135/500/19 330/581/19
f 329/117/19 140/318/19 236/115/19
f 233/116/19 330/581/19 329/117/19
f 98/291/25 115/428/25 120/118/25
f 120/118/25 101/294/25 376/119/25
f 379/120/25 98/291/25 120/118/25
f 106/297/25 123/307/25 112/121/25
f 112/121/25 93/288/25 383/122/25
f 382/123/25 106/297/25 112/121/25
f 227/124/26 109/582/26 122/125/26
f 377/583/253 104/584/253 85/128/253
f 85/128/254 83/282/254 99/129/254
f 378/127/255 377/583/255 85/128/255
f 381/130/256 380/585/256 96/131/256
f 96/131/257 77/586/257 91/132/257
f 91/132/258 107/587/258 381/130/258
f 88/133/259 144/434/259 156/134/259
f 143/136/260 70/424/260 66/137/260
f 145/139/261 151/435/261 62/140/261
f 92/142/262 80/425/262 152/143/262
f 162/145/263 45/422/263 58/146/263
f 53/148/264 187/588/264 180/149/264
f 356/589/35 9/454/35 288/152/35
f 288/152/35 293/590/35 22/153/35
f 357/151/35 356/589/35 288/152/35
f 40/154/36 41/591/36 298/155/36
f 299/157/37 44/529/37 30/158/37
f 301/592/38 3/522/38 285/161/38
f 285/161/38 289/593/38 8/162/38
f 302/160/265 301/592/265 285/161/265
f 400/163/19 251/348/19 264/164/19
f 243/166/19 256/352/19 399/167/19
f 272/171/19 412/452/19 415/451/19
f 415/451/19 281/559/19 355/169/19
f 355/169/19 354/539/19 278/541/19
f 278/541/19 411/448/19 410/170/19
f 410/170/19 275/557/19 348/412/19
f 348/412/19 351/411/19 272/171/19
f 272/171/19 415/451/19 355/169/19
f 355/169/19 278/541/19 410/170/19
f 410/170/19 348/412/19 272/171/19
f 403/172/9 408/594/9 280/173/9
f 229/176/19 131/312/19 385/548/19
f 384/177/19 136/315/19 232/175/19
f 229/176/19 385/548/19 384/177/19
f 237/179/19 139/501/19 389/595/19
f 388/180/19 128/309/19 224/178/19
f 237/179/19 389/595/19 388/180/19
f 387/181/14 392/596/14 267/182/14
f 7/246/19 31/417/19 43/184/19
f 43/184/19 20/251/19 373/185/19
f 372/186/19 7/246/19 43/184/19
f 362/597/19 35/259/19 13/461/19
f 362/597/19 13/461/19 369/188/19
f 28/254/19 38/455/19 363/187/19
f 363/187/19 362/597/19 369/188/19
f 368/189/19 28/254/19 363/187/19
f 169/190/266 159/396/266 57/191/266
f 154/193/267 65/382/267 63/194/267
f 146/196/268 73/383/268 71/197/268
f 239/199/42 121/598/42 118/200/42
f 231/202/43 113/599/43 110/203/43
f 94/475/25 111/301/25 116/205/25
f 116/205/25 97/293/25 319/206/25
f 318/207/25 94/475/25 116/205/25
f 102/531/25 119/390/25 124/208/25
f 124/208/25 105/299/25 323/209/25
f 322/210/25 102/531/25 124/208/25
f 103/213/269 321/600/269 320/211/269
f 320/211/44 108/601/44 90/212/44
f 90/212/270 86/283/270 103/213/270
f 316/602/271 100/603/271 82/215/271
f 82/215/272 78/385/272 95/216/272
f 317/214/273 316/602/273 82/215/273
f 72/217/274 76/604/274 160/218/274
f 56/220/275 60/381/275 184/221/275
f 161/223/276 167/605/276 50/224/276
f 68/226/277 168/395/277 164/227/277
f 294/231/278 291/373/278 36/525/278
f 294/231/278 36/525/278 361/229/278
f 360/230/278 37/606/278 294/231/278
f 204/232/25 203/607/25 201/233/25
f 212/235/25 209/608/25 205/236/25
f 221/238/25 218/609/25 215/239/25
f 198/241/25 195/610/25 190/242/25
f 4/244/279 5/530/279 6/245/279
f 12/247/280 13/461/280 14/248/280
f 18/250/281 19/611/281 20/251/281
f 26/253/282 27/462/282 28/254/282
f 30/256/55 31/417/55 32/103/55
f 33/258/56 34/376/56 35/259/56
f 37/261/57 38/455/57 39/106/57
f 41/263/58 42/377/58 43/184/58
f 45/265/283 46/225/283 47/34/283
f 50/267/284 51/111/284 52/150/284
f 54/269/285 55/192/285 56/220/285
f 58/146/286 59/39/286 60/271/286
f 61/273/287 62/487/287 63/194/287
f 65/274/288 66/137/288 67/28/288
f 69/276/289 70/482/289 71/197/289
f 74/141/290 75/31/290 76/277/290
f 77/279/291 78/385/291 79/22/291
f 81/281/292 82/473/292 83/282/292
f 86/283/293 87/19/293 88/284/293
f 90/212/294 91/612/294 92/286/294
f 93/288/295 94/475/295 95/289/295
f 98/291/296 99/613/296 100/292/296
f 101/294/73 102/531/73 103/295/73
f 106/297/74 107/546/74 108/298/74
f 109/300/75 110/389/75 111/301/75
f 114/302/76 115/428/76 116/205/76
f 118/304/77 119/390/77 120/118/77
f 121/306/78 122/429/78 123/307/78
f 126/308/297 127/499/297 128/309/297
f 129/311/102 130/547/102 131/312/102
f 134/314/81 135/500/81 136/315/81
f 138/317/298 139/501/298 140/318/298
f 142/198/299 143/614/299 144/320/299
f 145/321/300 146/196/300 147/20/300
f 150/323/301 151/435/301 152/143/301
f 154/325/302 155/615/302 156/134/302
f 158/147/303 159/488/303 160/326/303
f 162/327/304 163/489/304 164/227/304
f 166/109/305 167/490/305 168/328/305
f 169/190/306 170/467/306 171/329/306
f 173/36/307 174/397/307 175/330/307
f 177/332/308 178/464/308 179/333/308
f 181/38/309 182/438/309 183/334/309
f 185/336/310 186/466/310 187/337/310
f 225/92/95 226/616/95 227/338/95
f 228/91/96 229/176/96 230/339/96
f 233/116/97 234/617/97 235/341/97
f 237/179/98 238/618/98 239/342/98
f 241/343/99 242/72/99 243/166/99
f 244/345/100 245/554/100 246/76/100
f 248/347/297 249/536/297 250/55/297
f 253/349/311 254/75/311 255/94/311
f 257/71/103 258/535/103 259/351/103
f 260/83/104 261/78/104 262/353/104
f 264/164/105 265/57/105 266/355/105
f 269/74/106 270/552/106 271/357/106
f 284/3/111 285/161/111 286/370/111
f 289/372/112 290/619/112 291/373/112
f 293/374/113 294/526/113 295/156/113
f 296/80/114 297/458/114 298/375/114
f 33/258/115 29/257/115 32/103/115
f 41/263/116 40/262/116 39/106/116
f 309/104/312 310/620/312 311/378/312
f 313/107/118 314/621/118 315/379/118
f 49/380/313 47/34/313 46/225/313
f 60/381/314 56/220/314 55/192/314
f 65/382/315 68/226/315 64/228/315
f 73/383/316 76/604/316 72/217/316
f 81/384/317 79/22/317 78/385/317
f 89/287/318 87/19/318 86/283/318
f 317/386/125 318/207/125 319/206/125
f 320/388/126 321/622/126 322/210/126
f 116/205/127 111/301/127 110/389/127
f 121/306/128 124/208/128 119/390/128
f 231/202/129 226/204/129 225/391/129
f 239/199/130 234/201/130 233/393/130
f 149/24/319 155/23/319 154/193/319
f 141/21/320 147/20/320 146/196/320
f 168/395/321 167/605/321 161/223/321
f 172/219/322 160/218/322 159/396/322
f 188/222/323 184/221/323 183/10/323
f 173/36/324 179/35/324 178/16/324
f 325/398/137 326/54/137 327/399/137
f 329/401/138 330/623/138 331/48/138
f 333/402/139 334/534/139 335/84/139
f 337/404/140 338/56/140 339/95/140
f 341/406/138 342/69/138 343/88/138
f 345/408/137 346/624/137 347/63/137
f 349/410/140 350/625/140 351/411/140
f 353/413/139 354/539/139 355/169/139
f 298/155/141 297/564/141 292/5/141
f 290/2/142 289/593/142 285/161/142
f 361/415/143 362/597/143 363/187/143
f 30/256/144 44/264/144 43/184/144
f 368/189/145 369/188/145 370/418/145
f 372/186/146 373/185/146 374/420/146
f 54/110/325 53/148/325 52/150/325
f 45/422/326 48/37/326 59/39/326
f 69/423/327 67/28/327 66/137/327
f 62/140/328 61/570/328 75/31/328
f 85/128/329 88/133/329 84/135/329
f 91/132/330 77/586/330 80/425/330
f 376/119/153 377/469/153 378/426/153
f 380/427/154 381/626/154 382/123/154
f 117/305/155 120/118/155 115/428/155
f 112/121/156 123/307/156 122/429/156
f 235/112/157 230/114/157 229/430/157
f 227/124/158 238/126/158 237/432/158
f 144/434/331 143/136/331 153/138/331
f 148/144/332 152/143/332 151/435/332
f 165/30/333 171/29/333 170/436/333
f 163/32/334 162/145/334 158/147/334
f 180/149/335 187/588/335 186/7/335
f 176/437/336 175/13/336 182/438/336
f 384/439/165 385/627/165 386/45/165
f 388/440/166 389/628/166 390/51/166
f 392/441/167 393/550/167 394/77/167
f 397/442/168 398/551/168 399/167/168
f 400/444/166 401/629/166 402/60/166
f 405/445/165 406/64/165 407/40/165
f 409/447/168 410/170/168 411/448/168
f 413/450/167 414/630/167 415/451/167
f 287/159/169 286/576/169 296/80/169
f 294/231/170 293/590/170 288/152/170
f 30/453/171 29/1/171 284/3/171
f 9/454/172 8/631/172 289/372/172
f 38/455/143 37/261/143 360/416/143
f 292/5/173 23/563/173 22/456/173
f 296/80/174 16/575/174 15/457/174
f 11/249/337 14/248/337 308/105/337
f 25/459/338 28/632/338 368/460/338
f 18/250/339 21/252/339 312/108/339
f 4/244/340 7/246/340 372/186/340
f 7/246/19 6/245/19 32/103/19
f 13/461/19 35/259/19 34/376/19
f 27/462/19 39/106/19 38/455/19
f 43/184/19 42/377/19 21/252/19
f 176/331/341 48/266/341 47/34/341
f 12/463/342 11/633/342 178/464/342
f 184/335/343 60/271/343 59/39/343
f 185/336/344 26/565/344 25/465/344
f 76/277/345 75/31/345 157/33/345
f 161/223/346 46/225/346 45/265/346
f 68/275/347 67/28/347 165/30/347
f 55/192/348 54/269/348 170/467/348
f 88/284/349 87/19/349 141/21/349
f 74/141/350 73/278/350 146/468/350
f 80/425/351 79/634/351 149/324/351
f 153/138/352 66/137/352 65/274/352
f 319/206/353 97/293/353 100/292/353
f 376/119/354 101/294/354 104/296/354
f 323/209/355 105/299/355 108/298/355
f 383/122/356 93/288/356 96/290/356
f 108/470/357 107/587/357 91/132/357
f 78/385/358 77/279/358 96/472/358
f 82/473/359 100/635/359 99/129/359
f 103/213/360 86/283/360 85/285/360
f 97/293/25 116/205/25 115/428/25
f 119/390/25 102/531/25 101/294/25
f 106/297/25 105/299/25 124/208/25
f 112/121/25 111/301/25 94/475/25
f 235/476/199 234/201/199 118/200/199
f 122/125/200 121/636/200 239/478/200
f 227/479/201 226/204/201 110/203/201
f 114/113/202 113/637/202 231/481/202
f 70/482/361 143/614/361 142/198/361
f 148/483/362 147/638/362 89/484/362
f 151/486/363 150/195/363 63/194/363
f 156/134/364 155/615/364 81/281/364
f 159/488/365 158/147/365 58/146/365
f 64/228/366 164/227/366 163/489/366
f 167/490/367 166/109/367 51/111/367
f 72/217/368 172/219/368 171/329/368
f 175/330/369 174/397/369 5/491/369
f 180/149/370 179/333/370 49/268/370
f 18/493/371 183/334/371 182/438/371
f 188/222/372 187/337/372 53/270/372
f 129/311/215 132/313/215 324/93/215
f 133/316/216 136/315/216 384/177/216
f 137/319/217 140/318/217 329/117/217
f 125/310/218 128/309/218 388/180/218
f 224/178/19 128/309/19 127/499/19
f 229/176/19 228/91/19 132/313/19
f 135/500/19 233/116/19 232/175/19
f 139/501/19 237/179/19 236/115/19
f 335/84/215 260/83/215 263/354/215
f 395/165/216 264/164/216 267/356/216
f 268/358/217 271/357/217 336/405/217
f 256/352/218 259/351/218 396/443/218
f 267/502/199 266/572/199 134/46/199
f 138/49/200 137/639/200 271/504/200
f 259/506/201 258/573/201 126/52/201
f 130/43/202 129/640/202 263/508/202
f 244/345/217 247/346/217 340/82/217
f 403/511/218 248/347/218 251/348/218
f 252/350/215 255/94/215 345/96/215
f 240/344/216 243/166/216 404/168/216
f 256/352/19 243/166/19 242/72/19
f 261/78/19 260/83/19 247/346/19
f 265/57/19 264/164/19 251/348/19
f 254/75/19 269/74/19 268/358/19
f 348/412/217 275/557/217 277/514/217
f 411/448/218 278/541/218 280/515/218
f 355/169/215 281/559/215 283/516/215
f 412/452/216 272/171/216 274/517/216
f 280/367/201 279/366/201 249/61/201
f 253/519/202 252/641/202 283/369/202
f 274/361/199 273/360/199 241/67/199
f 276/363/200 245/58/200 244/521/200
f 286/370/219 285/161/219 3/522/219
f 291/373/220 290/619/220 33/524/220
f 40/154/221 295/156/221 294/526/221
f 299/157/222 298/375/222 41/528/222
f 5/530/175 310/620/175 309/104/175
f 26/253/373 314/621/373 313/107/373
f 318/207/191 317/386/191 95/289/191
f 322/210/193 321/622/193 103/295/193
f 326/532/227 325/578/227 127/499/227
f 331/533/228 330/581/228 135/500/228
f 334/534/227 333/402/227 258/535/227
f 265/57/228 338/56/228 337/404/228
f 241/343/228 342/642/228 341/70/228
f 249/536/227 347/643/227 346/537/227
f 351/411/228 350/625/228 273/538/228
f 354/539/227 353/413/227 279/540/227
f 350/68/42 349/577/42 343/88/42
f 345/96/19 339/95/19 338/56/19
f 340/82/19 335/84/19 334/534/19
f 333/53/43 332/101/43 327/399/43
f 353/62/43 352/86/43 344/409/43
f 337/47/42 336/579/42 328/97/42
f 35/259/143 362/597/143 361/415/143
f 12/247/374 370/418/374 369/188/374
f 19/494/375 374/15/375 373/542/375
f 379/544/376 378/127/376 99/129/376
f 382/123/194 381/626/194 107/546/194
f 130/547/233 386/644/233 385/548/233
f 390/549/234 389/595/234 139/501/234
f 261/78/233 394/77/233 393/550/233
f 398/551/234 397/442/234 270/552/234
f 402/553/234 401/560/234 246/76/234
f 406/555/233 405/73/233 254/75/233
f 410/170/234 409/447/234 276/556/234
f 415/451/233 414/630/233 282/558/233
f 409/59/26 408/594/26 403/172/26
f 414/66/24 413/571/24 407/40/24
f 404/168/19 399/167/19 398/551/19
f 395/165/19 394/77/19 401/560/19
f 393/44/24 392/596/24 387/181/24
f 397/50/26 396/569/26 391/25/26
l 3 1
l 1 2
l 10 8
l 9 10
l 17 15
l 16 17
l 24 22
l 23 24
l 189 190
l 190 191
l 194 192
l 192 193
l 197 195
l 195 196
l 200 198
l 198 199
l 205 206
l 208 207
l 211 209
l 209 210
l 214 212
l 212 213
l 215 216
l 220 218
l 218 219
l 223 221
l 221 222
l 303 300
l 300 301
l 302 303
l 307 304
l 304 305
l 306 307
l 359 356
l 357 358
l 358 359
l 367 364
l 364 365
l 366 367
l 419 416
l 416 417
l 417 418
l 418 419
l 300 1
l 359 10
l 304 24
l 364 17
l 10 303
l 17 307
l 416 300
l 303 417
l 24 358
l 1 367
l 307 419
l 418 304
l 358 418
l 417 359
l 419 364
l 367 416
